<svg preserveAspectRatio="none" width="100%" height="100%" overflow="visible" style="display: block;" viewBox="0 0 320.598 63.4363" fill="none" xmlns="http://www.w3.org/2000/svg">
<g id="Group">
<path id="Vector" d="M35.8464 62.5958V62.398H35.5229V62.5958H35.8464ZM33.8658 62.5266L34.1894 62.2002V62.0717H34.0619L33.9345 62.1409V62.3387C33.9345 62.3387 33.8658 62.4672 33.8658 62.5365V62.5266ZM34.3855 48.6625L34.1894 48.4648C33.9933 48.534 33.8658 48.534 33.6697 48.5933C33.3462 48.7911 33.0128 48.9197 32.7579 48.9197V49.1174H33.3462L34.3953 48.6625H34.3855ZM31.9441 63.4363H31.6205V63.2386H31.9441V63.4363ZM31.0911 49.7899V49.6613H30.6989V49.7899H31.0911ZM31.0911 49.1174V48.9889L31.0224 48.9197H30.6989V49.1174H31.0911ZM28.13 29.7454V29.5476H27.8065V29.7454H28.13ZM27.326 50.8282V50.6996C26.8652 50.7689 26.6691 50.8974 26.6691 51.0952V51.293C27.1299 51.0952 27.326 50.9073 27.326 50.8381V50.8282ZM26.473 50.9567L26.1495 51.2831H26.473V50.9567ZM24.4238 31.4561V31.3276L23.9042 31.4561H24.4238ZM42.1215 24.4252C38.3466 26.2052 35.317 28.3708 36.9151 29.0927C36.8465 29.1619 36.7877 29.2213 36.719 29.2213C37.0426 29.2905 37.1799 29.4784 37.1799 29.7454C37.8368 29.7454 38.4447 30.7244 38.9644 32.6329L38.6408 34.2843L38.8369 34.4821V34.6799L38.3172 35.3325L38.4447 35.5303V36.0544L37.8564 36.6378V37.8937C39.6409 37.9629 40.4939 38.0222 40.4939 38.22L40.7586 38.0222C41.7391 38.0222 43.3275 38.6749 45.4453 40.0593C45.965 40.0593 46.3572 40.5834 46.5533 41.6415H46.3572L46.5533 41.7701V41.9679L46.0336 42.492V41.9679L45.965 42.0371C45.965 42.1656 45.8964 42.2942 45.8375 42.492C45.6414 42.6897 45.7101 42.7491 45.6414 42.8183H45.7689V43.0161C45.0531 44.4697 44.2393 45.1817 43.3961 45.1817L43.0039 45.508H42.8078L43.0039 45.3795V45.1817L42.8765 45.0531C42.749 45.1224 42.6117 45.2509 42.4157 45.3103L42.4843 45.3795V45.7058H42.2882L42.1607 45.508H42.0333C40.641 46.2892 39.1997 47.0309 37.6799 47.7429C37.0916 48.267 35.5621 48.9197 33.1893 49.78H32.7971V49.4536H32.5324L31.2676 50.1656L30.7479 49.9679L30.4244 50.2942H30.2283V49.9679L30.0322 49.7701L30.2283 49.6415C30.5518 49.6415 30.7479 49.4438 30.7479 49.1174L30.2283 48.9197L28.9634 49.4438V49.6415L29.287 49.9679L29.4831 49.7701L29.6792 49.9679V50.1656L29.4831 50.2942H29.287L29.4831 50.492V50.6897L28.8948 51.5995L28.6987 51.471L28.3751 51.7281L28.1791 51.5995H27.983L27.8555 52.0544L27.5908 51.9258H27.3947C27.0711 52.3807 26.875 52.707 26.875 53.0334V53.2311L27.0711 53.3597L26.875 53.5575V53.7552C27.0711 54.7342 28.0516 55.2089 29.7086 55.2089L30.9734 55.4067V55.6044L31.1695 55.4067H31.297L31.4931 55.6044H31.6892L33.0815 55.2188L33.7384 55.4166L34.5914 55.2188L35.9249 55.6044C37.778 55.3473 38.6898 55.021 38.6898 54.6947L38.4937 54.5661L39.4056 54.3684L40.19 54.5661L43.8962 53.7849V53.3894H43.4353V53.0037L44.0923 53.0729C44.8767 53.0729 45.2689 52.9444 45.2689 52.618C48.2299 52.8752 50.4164 53.5278 51.8087 54.5958C51.8087 54.9221 52.2695 55.4462 53.201 56.178C53.201 56.6329 53.3284 57.0284 53.7892 57.3449V57.869C53.5245 58.1261 53.3284 58.4524 53.1323 58.6502V58.9073C53.1323 59.2336 53.0049 59.4314 52.8088 59.4907C52.7401 60.0148 52.2205 60.2719 51.8969 60.0742H51.8283C51.8283 60.0742 51.7596 60.2027 51.7008 60.2719C51.6322 60.5983 51.4361 60.796 51.1125 60.796C50.9164 61.1224 50.6517 61.1916 50.2595 61.0531C50.0634 61.1224 49.8673 61.1817 49.7987 61.1224L49.5339 61.5773H49.4065L48.6221 61.508C48.3574 61.8344 48.1024 61.9036 47.7691 61.6366C47.7004 61.7058 47.6416 61.7058 47.5043 61.7058H47.3769C47.1122 61.7058 46.9161 61.6366 46.7886 61.508C46.5925 61.7058 46.3278 61.7651 46.0728 61.7058H45.612C45.4846 61.7058 45.4159 61.7058 45.3473 61.6366C45.2198 61.7058 45.0237 61.7058 44.6904 61.6366C44.4943 61.7651 44.2295 61.7651 44.0334 61.6366C43.9648 61.7058 43.7687 61.7058 43.5726 61.7058H42.8569C42.5921 61.775 42.3372 61.7058 42.1411 61.5773C42.0725 61.6465 42.0137 61.6465 41.945 61.7058L41.5528 62.0321L41.0332 61.6465L40.4449 61.8442L40.3174 61.7157H40.2488C40.1213 62.042 39.7291 62.1706 38.984 62.1706L38.4643 62.042V62.1706L37.876 62.042L36.6112 62.6947L36.3465 62.3684H36.219V62.6947H35.4346C35.4346 62.3684 35.3072 62.1706 35.1111 62.1706C35.1111 62.6255 34.8463 62.8826 34.258 62.8826V62.6848L34.0619 62.8826H33.7972C33.4737 63.0803 32.8167 62.9518 32.8167 62.3585C32.8167 62.3585 32.7971 62.3782 32.7481 62.4277V62.4969C32.552 62.8232 32.3559 62.9518 32.0912 62.9518H31.5715C31.4441 62.9518 31.3754 62.9518 31.3068 62.8826V63.4067H30.591L30.3949 62.5661C30.0714 62.5661 29.6792 62.7639 29.1301 63.2188H28.8654C28.8654 62.8925 28.7379 62.6947 28.5418 62.6947L28.3457 62.8925V63.0902L28.1496 62.8925L27.2378 63.0902H26.7181V62.5661H26.5907C26.5907 62.8925 26.4632 63.0902 26.1985 63.0902C23.4923 62.6947 21.3843 62.0519 19.8548 61.0531C19.7861 60.796 19.5312 60.529 19.0017 60.2126L18.8743 59.8863C18.286 59.3028 17.8252 58.1063 17.5408 56.4845C17.5408 56.2274 18.1977 55.1001 19.7175 53.2707C20.698 52.5587 21.1784 52.1038 21.6392 52.1038L21.7667 52.3016C22.6197 51.5204 23.2276 51.1347 23.6198 51.1347V51.3325L23.7473 51.1347H23.9434L24.463 51.3325L24.7866 50.8776V50.2942C24.9827 50.3634 25.0513 50.225 25.2474 50.1656L25.316 50.2349L25.1886 50.3634V51.0161C26.1004 50.3634 26.777 50.0371 27.2378 50.0371L26.9142 49.513L27.0417 49.3152H27.2378L27.5613 49.7108V49.8393L27.4339 50.0371V50.2349C28.0222 50.2349 28.3457 50.4326 28.3457 50.8875H28.5418L28.8654 50.5612L28.6693 50.3634L29.0615 50.0371V49.8393C28.2085 49.7701 27.728 49.5822 27.728 49.3152C28.385 48.6625 29.4537 48.2077 30.8852 47.9308C30.8852 48.1286 30.8852 48.2571 30.9538 48.3263C31.0224 48 31.2774 47.8714 31.6107 47.8022C32.3265 47.8022 33.0717 47.6737 33.9247 47.3473C33.856 47.2781 33.7972 47.2188 33.7286 47.021C33.0717 47.2781 32.6206 47.4067 32.3363 47.4067V47.2781L31.4244 47.1496V46.8232L31.4931 46.754C32.0814 46.5562 32.8265 46.4277 33.2776 45.9036C33.3462 45.9036 33.4737 45.8344 33.7384 45.775L37.2877 43.2831C37.4838 43.2138 37.6799 43.2138 37.9447 43.1545C38.2682 43.0853 38.4643 42.8282 38.4643 42.5019L38.5918 42.3733V42.2447H38.3957C38.327 41.9184 38.0721 41.7899 37.6799 41.8492C36.6994 42.047 35.8268 42.2447 35.0424 42.6897C33.454 43.0161 31.8853 43.0853 30.3557 43.0853C30.2283 42.8875 30.0322 42.759 29.7674 42.759C28.7183 42.8282 27.6496 42.1755 27.7182 40.9197C27.7182 40.7219 27.6496 40.5241 27.5221 40.3955V40.1384C27.5221 39.6836 28.0418 38.4277 29.0517 36.3906V35.2831L29.1203 35.0853L29.0517 34.5612C26.7377 35.3424 25.3455 36.2126 24.9533 37.0531C24.1689 37.8344 23.2276 38.309 22.1197 38.5068C20.4627 38.5068 19.4135 37.7948 18.8253 36.3412L18.6292 35.6292L18.8253 35.4314L18.4331 35.1051V34.7787C19.4135 33.3943 20.4823 32.7417 21.5902 32.7417C21.9138 32.4153 22.4432 32.089 23.2472 31.7033L23.3159 31.6341L24.7768 30.9221V30.7244L25.0415 30.8529C25.0415 30.8529 25.2376 30.7244 25.4337 30.6551H25.5023C26.022 30.131 26.6103 29.8739 27.228 29.8739L27.0319 29.6761V29.5476C27.6202 29.5476 28.885 29.0235 30.8067 28.0247L30.9342 28.2225H31.1303L32.3951 27.5105L32.2677 27.4413C32.4638 27.4413 32.5912 27.382 32.7873 27.382C34.2482 26.9864 35.8856 25.7305 39.9154 23.4363C39.1997 23.4363 38.5231 23.822 37.8662 24.0198L39.4546 22.6354L38.6016 20.2719C38.6016 20.0742 38.278 19.8171 37.8172 19.1051L37.3564 17.4536L37.4838 17.3844V17.2559C37.023 16.7318 36.7681 16.089 36.6994 15.2188L36.8269 14.8331C36.5033 14.8331 36.4347 13.9234 36.5033 12.1434V11.6885L36.6308 11.6193C36.4347 11.0952 36.3661 9.96786 36.3072 8.34611C35.8464 7.5649 35.2581 7.17923 34.5228 7.17923C33.5423 6.5958 33.0619 5.92336 33.1305 5.2707L32.9344 4.94438L33.0619 4.48949L32.4736 4.42027C32.4736 4.42027 32.601 4.29172 32.8658 4.29172C32.5422 4.2225 32.4049 4.16316 32.4049 3.96539C32.4736 3.76761 32.7285 3.70828 33.1893 3.70828V3.63906L32.9932 3.31273V3.11496L33.1207 3.04574V2.97651C32.7971 2.84796 32.601 2.65019 32.5324 2.45241V2.38319C32.601 2.18541 32.856 2.05686 33.1893 2.05686V2.25464L34.9738 1.47342L35.366 1.54265C35.4934 1.54265 39.0722 0.959209 40.7684 0.761434C41.3567 0.563659 41.8764 0.63288 42.6216 0.63288L45.9748 1.88875C46.6317 2.01731 47.5044 2.60074 48.5437 3.66873C48.6711 3.66873 49.0633 4.44994 49.8085 5.97281L49.7398 6.88257L49.6124 7.01113L49.7398 7.53523C49.7398 10.4821 49.8085 12.3313 49.9359 13.0433L49.8673 13.4981V13.6267L50.3281 13.6959C50.9164 13.4981 51.4361 13.0433 52.1812 12.3115C51.8577 11.1446 53.9657 10.7293 54.8187 10.403H55.407L56.1228 10.6007C56.4463 10.403 56.6424 10.2744 56.6424 10.0766H56.7111L57.7602 10.2052C58.0249 9.94808 58.221 9.80964 58.4171 9.80964C58.8779 9.87886 59.7506 10.136 60.2016 10.6601C60.5252 10.7293 61.2507 11.3127 62.3783 12.44C62.9666 12.9642 62.643 14.0915 62.7018 14.6057L62.6332 14.8628C62.5057 15.5748 62.1724 15.9011 61.5841 15.8418L61.5154 15.911C61.4468 16.1681 61.3193 16.2373 61.1232 16.3066C60.9958 16.6329 60.8585 16.8307 60.6624 16.8307C60.5938 17.157 60.2702 17.2855 60.0055 17.3548C60.0055 17.3548 60.0251 17.3943 60.0741 17.4833C60.0741 18.1953 59.3584 18.3931 59.025 18.0667C58.8975 18.136 58.7603 18.1953 58.5642 18.2645C58.3681 18.7194 57.9759 18.9172 57.6523 18.7194C57.3288 19.4314 56.7405 19.7577 55.9953 19.6984C55.7992 20.0247 55.0835 20.2818 53.75 20.4796C53.0343 20.8059 52.5734 21.1323 52.093 21.1323C51.3773 21.33 50.6321 21.7157 49.583 21.9135C49.0633 22.1112 48.5339 22.5661 47.7985 23.0803C47.6024 23.0803 47.2102 23.2781 46.6219 23.6638C46.1611 23.466 45.965 23.733 45.965 23.7923L45.7689 24.0494L45.1806 23.9209C44.5923 24.7021 42.7392 24.2472 42.4157 24.3758C42.4157 24.3758 42.396 24.4153 42.347 24.5043H42.1117L42.1215 24.4252ZM5.67699 20.5686L5.48089 20.3708H5.41226V20.5686H5.67699ZM18.0997 5.26082C18.4233 5.06304 18.7566 4.93449 19.0802 4.93449H19.3449L20.8058 5.00371L21.7177 4.93449C21.7177 5.13226 22.1099 5.32015 22.9825 5.58714C22.9825 5.78492 23.11 5.91347 23.3061 6.04203L23.4335 5.91347C24.3454 5.98269 25.4141 6.29914 26.5907 6.89246C26.9142 7.34734 27.3064 7.60445 27.6986 7.60445C28.6791 8.31644 29.1595 8.92954 29.1595 9.44376C29.4831 9.83931 29.6204 10.0964 29.6204 10.2942V11.1446C29.4929 11.9951 29.3556 12.4697 29.1595 12.4697L29.2282 12.5389V12.6675C28.7673 14.4475 28.5712 15.555 28.2477 16.0692L28.3751 16.3263C27.9143 17.1768 27.6594 18.2349 27.5221 19.4017L27.2574 19.5303L27.326 19.5995C27.1986 20.9246 27.0025 21.7651 26.6691 22.22C26.8652 22.22 26.9338 22.4771 26.9338 23.0012C26.6103 23.0705 26.473 23.199 26.473 23.3276V23.3968C26.7377 23.3968 26.8652 23.466 26.8652 23.5946L26.6005 23.8517L26.2769 23.7824C26.0122 25.1669 25.62 26.0865 25.169 26.5315C25.1003 26.8578 24.5807 27.115 23.512 27.3721C22.9923 27.3721 22.7276 27.5698 22.7276 27.8962C22.5315 28.2818 22.1393 28.6082 21.4628 28.9345L19.9332 30.2596C19.8057 30.2596 19.541 30.4574 19.0802 30.9122L17.9722 30.4574L17.4526 30.843H17.3839L17.1878 30.6452C17.1878 30.6452 17.0604 30.3881 16.727 30.0618C16.5309 29.4784 16.4035 29.0235 16.4035 28.6774C16.5309 27.9654 16.727 27.5698 16.9918 27.5698L16.8643 27.115L17.3251 20.9345V20.8059C17.2565 20.6774 17.0604 19.7676 16.8643 18.1162H16.9918L16.4035 16.8603C15.8838 17.3844 15.3543 17.8393 14.8151 18.1854L14.9425 18.2546V18.3832L14.619 18.6403L14.4915 18.5711H14.4229V18.6403L14.4915 18.8974L13.3836 19.6786C13.3836 20.1335 13.1875 20.3906 12.7267 20.5884L12.4619 20.4598C12.0011 20.7862 11.6775 20.9839 11.4814 20.9839L10.8932 21.1817H10.5696C10.5696 21.4388 10.501 21.5674 10.3735 21.5674C10.3049 21.5674 10.246 21.4388 10.246 21.1817H10.1186C10.1186 21.4388 10.0499 21.5674 9.92248 21.5674H9.72638L9.65775 21.4388H9.58911L9.32438 21.6959L8.80473 21.5674L8.41253 21.7651L7.43205 21.5674L7.23596 21.8937L6.64767 20.9839L5.99074 21.1125C5.86328 21.1125 5.79465 20.9147 5.79465 20.5884H5.52992V20.4598L5.01026 20.0049L4.94163 20.1335H4.87299L4.08861 20.0049H3.69642C3.23559 19.4808 2.78457 19.1644 2.16687 19.026C2.09823 18.9567 1.84331 18.4425 1.50994 17.4438H1.57858L0.921653 16.6625V16.534H1.31385V16.4054C0.853019 16.4054 0.656923 16.1483 0.656923 15.6242L0.784386 15.2979L0.460827 15.1001L0.588289 14.9716V14.843C0.519655 14.5167 0.323559 14.1904 0 13.7355V12.8257C0.196096 12.3708 0.588289 12.1731 1.33346 12.1731C1.40209 11.9753 1.59819 11.7775 1.92174 11.5896H2.51003L2.70613 11.7874L3.29442 11.5896L4.95143 11.7874C5.02007 11.5896 5.66719 11.1347 6.93201 10.4623H7.39283C7.39283 10.2645 7.85366 9.9382 8.72629 9.48331C9.7754 8.77132 11.1677 7.97033 12.8247 7.1199C13.1483 6.92213 13.9326 6.46724 15.3347 5.86403C15.3347 5.66625 15.9917 5.46848 17.2565 5.21137C17.3251 5.0136 17.4526 4.88504 17.7761 4.88504H17.9036L18.2272 5.21137L18.0703 5.25093L18.0997 5.26082Z" fill="var(--fill-0, white)"/>
<path id="Vector_2" d="M121.609 19.9852H121.344V19.9159H121.609V19.9852ZM121.482 39.6737H121.286V39.4759H121.482V39.6737ZM121.482 39.021H121.286V38.7639H121.482V39.021ZM121.354 33.6415H121.286L121.217 33.5723V33.4438L121.286 33.3152C121.354 33.513 121.286 33.5723 121.354 33.6415ZM121.227 34.225L121.099 34.0964V34.2942L121.227 34.225ZM121.227 32.1879V32.8405L121.031 32.5834C121.099 32.3857 121.158 32.2571 121.227 32.1879ZM121.099 27.5303V27.8566L121.031 27.5995L121.099 27.5303ZM120.776 26.3634L120.844 26.4326V26.3041C120.844 26.3041 120.776 26.3041 120.776 26.3733V26.3634ZM120.452 55.5154H120.384L120.511 55.7132L120.639 55.5847C120.639 55.5847 120.511 55.5154 120.442 55.5154H120.452ZM120.099 47.9703C120.099 47.9703 120.168 47.8418 120.168 47.7726C120.168 47.7726 120.148 47.7528 120.099 47.7033V47.5748L120.031 47.644L120.099 47.9703ZM120.099 44.1533H119.972V44.0841H120.099V44.1533ZM119.972 38.576V38.3782H120.099L119.972 38.576ZM120.236 19.2732L120.305 19.204C120.305 19.204 120.178 19.0062 120.178 18.6799V18.0272H119.982V18.225C119.982 18.6799 120.05 18.937 120.246 19.2633L120.236 19.2732ZM120.168 53.152C120.168 53.152 120.168 53.0828 120.236 53.0828C120.168 53.0136 120.168 52.8257 120.168 52.6279C120.168 52.3708 120.237 52.1731 120.295 52.1038C120.295 51.9061 120.364 51.7775 120.423 51.5797C120.354 51.5105 120.295 51.3819 120.295 51.2534L120.227 51.1842H120.158C120.158 51.3127 120.031 51.4413 119.697 51.5797V51.7083C119.697 51.7083 119.825 51.9061 120.021 51.9654V52.1632L119.893 52.618C120.021 52.618 120.089 52.8158 120.158 53.1421L120.168 53.152ZM119.903 40.0297V39.9604H119.707V40.0297H119.903ZM120.031 48.0989H119.962L119.766 47.9011H119.638V48.0989C119.638 48.2967 119.766 48.356 119.962 48.4252L120.031 48.356V48.0989ZM119.638 33.2658H119.511V33.1372H119.638V33.2658ZM120.099 56.9098V56H119.972L119.707 56.2571H119.442L119.707 56.9098H120.099ZM119.903 53.8047L119.776 53.7355C119.776 53.864 119.648 53.9332 119.452 53.9332L119.717 54.3288C119.913 54.2596 120.04 54.2002 120.178 54.2002V53.6168C120.05 53.6168 119.982 53.686 119.913 53.8146L119.903 53.8047ZM120.099 17.0383C120.031 16.9098 120.031 16.7812 120.031 16.5142C120.031 16.3164 120.031 16.2571 120.099 16.1879C120.031 16.1187 120.031 15.9901 120.031 15.7923V15.7231L119.511 15.5946L119.638 15.7231V15.7923L119.442 16.1187H119.766V16.2472L119.638 16.445L119.707 16.5142L119.442 17.3548L119.511 17.4833H119.638C119.835 17.4833 119.903 17.2855 119.903 16.8999H120.031L120.099 17.0284V17.0383ZM120.315 14.0915H119.658L119.266 14.2892C119.393 15.0012 119.589 15.3968 119.923 15.3968L120.05 15.2682H120.178V15.0705C120.178 14.7441 120.246 14.6156 120.305 14.5464V14.2892L119.785 14.6749H119.717L120.236 14.1508L120.305 14.22V14.0915H120.315ZM120.639 50.403V50.2052C120.639 50.0074 120.639 49.8789 120.707 49.8195C120.442 49.7503 120.315 49.5624 120.315 49.1669V49.0383C120.119 48.9691 120.05 48.7812 120.05 48.5834L119.982 48.6527H119.462L119.197 49.0482V49.3053H119.266L119.658 49.2361L119.785 49.5624L119.658 49.9481L119.923 50.0173L119.991 49.9481L120.187 50.403L120.119 50.8578L120.187 50.9864H120.256L120.325 50.8578C120.393 50.6601 120.452 50.4722 120.648 50.403H120.639ZM120.315 44.8949V44.1137C120.315 43.8566 120.384 43.6588 120.511 43.5896C120.384 43.4611 120.315 43.2633 120.315 43.0062C120.315 42.8084 120.384 42.6106 120.511 42.4821C120.384 42.3535 120.315 42.1557 120.315 41.958C120.315 41.7602 120.315 41.7009 120.384 41.6316C120.315 41.5624 120.315 41.4339 120.315 41.2361V40.5241C120.119 40.4549 120.05 40.267 120.05 40L119.197 40.7812L119.129 40.979L119.256 41.4339L119.648 41.3053L119.717 41.5624H119.982C119.982 41.3646 120.05 41.2361 120.109 41.2361L120.236 41.691L120.04 41.9481L119.972 41.8195H119.903L119.776 41.9481V42.0766C119.972 42.0766 120.099 42.2744 120.099 42.7293L120.168 42.9864H120.099L119.903 42.7886C119.903 42.9864 119.707 43.1743 119.246 43.4413L119.178 43.8962V43.9654H119.501C119.501 43.7676 119.57 43.7083 119.697 43.7083L119.766 43.8368V43.9061C119.766 45.0136 119.57 45.5575 119.246 45.5575V46.4079L119.119 46.665L119.187 47.0507H119.452V46.8529H119.717L119.785 46.9221H119.913L119.785 47.0507V47.3078L119.982 47.5056V47.0507H120.05C120.05 46.8529 120.119 46.665 120.315 46.5958C120.119 46.398 120.05 46.2101 120.05 46.0124H119.982V45.7553L120.05 45.8838V45.4883C120.05 45.1619 120.119 44.9642 120.315 44.9048V44.885V44.8949ZM120.158 26.3733C119.962 26.2447 119.835 26.047 119.835 25.7206C119.835 25.4635 119.903 25.2658 120.031 25.1965C119.903 25.068 119.835 24.8702 119.835 24.6724V24.5439L119.707 24.4153H119.776L119.707 24.2868L120.031 23.9604V23.8319C120.031 23.6341 120.099 23.5056 120.158 23.4462C120.089 23.377 120.031 23.1891 120.031 22.9221C120.031 22.7243 120.031 22.5958 120.099 22.5266C120.031 22.4574 120.031 22.2695 120.031 22.0717C120.031 21.8739 120.099 21.7454 120.158 21.5476V19.4413H120.031C120.031 19.4413 119.903 19.3127 119.903 18.9864H119.638C119.511 18.9864 119.442 19.115 119.442 19.3127L119.511 19.4413L119.246 19.9654L119.442 20.2917L119.05 21.0729L119.178 21.2707C119.109 21.7256 119.05 21.9234 118.854 21.9234L119.05 22.3782L119.119 22.309H119.246L119.05 23.7627L119.442 24.1582L119.119 24.2868L119.442 24.7417C119.442 24.7417 119.315 24.8702 119.119 24.8702V25.6514C119.05 25.8492 118.991 26.1063 118.991 26.5612C118.864 26.5612 118.727 26.759 118.668 27.2138L118.736 28.0643V28.3214H119.001C119.001 27.9951 119.07 27.7973 119.129 27.7973L119.256 27.9951C119.256 27.9951 119.129 28.1236 119.129 28.3214L119.197 28.5192L119.129 29.1026L119.256 29.3004H119.521C119.648 29.3004 119.785 29.1026 119.913 28.7169H120.04C119.913 28.5884 119.844 28.3906 119.844 28.1335C119.844 27.9357 119.913 27.7379 120.04 27.6094C119.913 27.5402 119.844 27.4116 119.844 27.0853V26.9567C119.844 26.6304 119.972 26.4326 120.168 26.3733H120.158ZM120.031 30.3881C119.903 30.2596 119.835 30.131 119.835 29.9332H119.707C119.58 29.9332 119.511 29.8047 119.511 29.5377H119.119L119.187 29.7948C119.119 30.2497 119.187 30.576 118.991 30.8331L119.119 30.9617V31.0902C118.727 31.0902 118.53 31.3473 118.53 31.8714V32.0692H118.266V32.5933C118.658 32.5933 118.854 32.6625 118.854 32.8504L118.53 33.7602V33.8888H118.727C119.05 33.8888 119.315 33.691 119.511 33.3053H119.835C119.835 33.1075 119.835 33.0482 119.903 32.979L119.972 32.0692L119.903 31.9407C119.903 31.9407 119.835 31.7429 119.835 31.5451C119.835 31.3473 119.903 31.2188 119.962 31.1595L119.893 30.7639C119.893 30.7639 120.021 30.6354 120.021 30.3782L120.031 30.3881ZM118.53 46.398C118.53 46.5266 118.403 46.5958 118.207 46.5958V46.665C118.276 47.1199 118.403 47.3177 118.53 47.3177L118.658 46.8628L118.53 46.7936V46.665L118.854 46.0124L118.658 45.7553H118.53L118.403 46.0816L118.53 46.4079V46.398ZM118.403 50.0173H118.53V49.3053C118.53 49.3053 118.403 49.1768 118.403 48.8504L118.079 49.2361V49.3053L118.403 50.0173ZM118.403 42.0569V41.9283L118.207 41.7998H118.079L118.207 42.0569H118.403ZM118.079 39.6934H118.54L118.217 39.4363L118.089 39.5056V39.7033L118.079 39.6934ZM118.276 36.2917L118.54 36.0939V35.7676H118.079V36.0939L118.276 36.2917ZM109.167 46.1409V46.0124H108.971V46.1409H109.167ZM106.657 31.9604V31.8912H106.461V31.9604H106.657ZM106.333 24.6724H106.461L106.333 24.801H106.265V24.7318L106.333 24.6625V24.6724ZM104.804 24.3461L104.539 24.801L104.666 25.2559L104.47 25.3844V26.0371L104.666 26.2349C104.666 26.0371 104.863 25.9085 105.186 25.9085L105.382 25.5822C105.382 25.1273 105.314 24.801 105.117 24.6032V24.534C104.921 24.534 104.853 24.4648 104.794 24.3362L104.804 24.3461ZM105 23.2386C105 23.2386 104.872 23.0408 104.872 22.7837C104.872 22.5859 104.941 22.398 105 22.3288L104.539 22.131L104.47 22.2002V22.3288L104.666 22.8529L104.539 22.9815V23.0507L104.666 23.1199V23.2485L104.539 23.7033L104.666 23.9604V23.8319C104.666 23.5748 104.794 23.377 104.99 23.2485L105 23.2386ZM104.872 27.2336V27.1644C104.745 27.1644 104.676 27.0358 104.676 26.8381H104.549L104.353 27.0952L104.814 27.3523L104.882 27.2237L104.872 27.2336ZM120.236 30.5266V30.9221C120.697 30.7243 121.09 31.0507 121.09 31.5748C121.09 32.2868 120.501 32.4252 120.178 32.1582V32.4845L120.109 32.6131H120.04V32.8109C120.364 32.4845 121.09 32.6131 121.09 33.335C121.09 33.4635 121.09 33.5328 121.021 33.5921C121.09 33.6613 121.09 33.7206 121.09 33.8492V33.9184H121.354L121.482 34.314C121.354 34.314 121.286 34.4425 121.286 34.6403H121.09V34.3832C120.893 34.9666 120.237 35.1644 120.04 34.7095V34.9666L119.648 34.8381H119.187L119.119 35.2237L119.187 35.6193L119.119 36.0742C119.511 36.0742 119.707 36.2027 119.707 36.4005L119.442 36.9246V37.3103L119.638 37.5674C119.442 37.5674 119.246 37.8937 119.119 38.5464H119.638V38.7441L119.442 39.0012V39.199L119.638 39.6539H119.962L120.031 39.2583V38.8727C120.031 38.6749 120.099 38.5464 120.158 38.3486C120.089 38.1508 120.031 38.0222 120.031 37.8245H119.903V37.5674H120.031V37.3103C120.031 36.4598 121.011 36.4005 121.207 37.1817L121.335 37.1125V37.3696L121.207 37.5674V37.953H121.335V38.2101H121.266L121.139 38.0816C121.07 38.2794 121.011 38.3387 121.011 38.3387C121.08 38.5365 121.207 38.665 121.207 38.8628V39.7726C121.207 39.9011 121.207 39.9703 121.139 40.0297H121.207L121.276 39.9604V40.089C121.472 40.1582 121.541 40.3461 121.541 40.6131V41.1372C121.541 41.335 121.472 41.335 121.472 41.5328C121.472 41.5328 121.472 41.602 121.541 41.6613L121.609 41.7305L121.541 41.7998V41.869C121.541 41.869 121.472 41.9975 121.472 42.0667H121.599L121.727 42.136V42.2645L121.599 42.7886L121.727 42.9172V43.0457C121.658 43.3721 121.599 43.6984 121.531 43.8863V44.5389C121.531 44.6675 121.462 44.796 121.403 44.9938C121.472 45.063 121.531 45.1916 121.531 45.3795V45.9629C121.531 45.9629 121.658 46.22 121.727 46.5464L121.531 46.6749V47.5253L121.658 47.6539H121.727V47.9802C121.727 48.178 121.658 48.3659 121.531 48.5043V48.7021C121.727 48.8307 121.854 49.0284 121.854 49.2262C121.854 49.3548 121.786 49.4833 121.727 49.6811C121.795 49.7503 121.854 49.8789 121.854 50.0667C121.854 50.3239 121.727 50.5216 121.462 50.5909C121.462 50.6601 121.531 50.6601 121.531 50.848L121.599 51.1051L121.472 51.1743C121.472 51.1743 121.344 51.3721 121.276 51.4314C121.344 51.4314 121.403 51.5006 121.472 51.5599H121.599L121.727 51.6292V51.6984C121.727 51.8962 121.658 52.0939 121.462 52.1533L121.59 52.2818V52.4104C121.59 52.4104 121.462 52.6082 121.266 52.6675V52.796L121.462 53.1224L121.335 53.1916V53.5871H121.266V53.6564C121.266 53.6564 121.335 53.8541 121.335 54.0519V54.4376L121.727 54.9617L121.599 55.0309L121.727 55.1595V55.288L121.599 55.6143L121.727 55.7429V55.8121L121.599 55.9407L121.727 56.4648V56.8603L121.599 56.9295L121.727 57.0581V57.7107L121.795 58.6205L121.727 59.0161C121.266 59.3424 121.011 59.5995 120.55 60.0544C120.482 59.9852 120.354 59.8566 120.286 59.6588C120.089 60.2423 119.236 60.3708 119.178 59.6588C118.981 60.1137 118.325 60.1829 118.07 59.7281V59.7973C117.874 60.3807 117.285 60.5785 116.962 60.1236H116.834V60.3214L116.766 60.3906L116.305 61.1718L115.785 60.9147C115.785 61.1125 115.462 61.1718 114.873 61.241C114.873 61.4388 114.805 61.4981 114.677 61.4981H114.285L113.893 61.6267L112.716 61.5575L112.648 61.6267V61.7552C112.187 61.7552 111.863 61.4981 111.383 61.2311H111.314L110.598 61.3597C110.598 61.1619 110.206 60.9048 109.49 60.5192L108.775 59.4116L108.902 59.0853C108.706 59.0161 108.51 58.8282 108.314 58.5019V58.3733L108.51 58.1755C108.51 58.1755 108.314 57.7899 108.245 57.1965L108.314 57.068L108.245 56.9394H108.118L108.441 55.4858L108.314 55.3572V55.288C108.51 54.7046 108.579 54.1211 108.775 53.6366L108.579 52.9246V52.4005C108.647 52.0742 108.706 51.9456 108.775 51.9456L108.706 51.4907V49.6514C108.706 49.4536 108.902 49.3943 109.363 49.3251V49.068C109.098 49.068 108.902 48.8109 108.775 48.2868L108.902 47.8319L108.775 47.377L108.902 45.597V45.4685L108.775 45.0136C108.902 45.0136 108.971 44.7565 108.971 44.2324C109.167 44.2324 109.235 44.1038 109.235 43.7775H109.363L108.971 43.1941V41.8096L109.167 41.6811L109.039 40.9691V40.8405L109.363 40.5142L109.039 39.9308L109.235 39.6044L109.039 39.1496L109.363 38.6947V38.5661L109.167 38.3684L109.363 38.042V37.8443L109.167 37.5179V37.4487L109.235 37.3201L109.167 37.2509V36.5389L109.235 36.0148H109.167V35.8863L109.235 35.8171V35.6885L109.167 35.4907L109.559 34.0371L109.49 33.5822C109.618 33.513 109.687 33.3844 109.687 33.0581C109.687 32.7318 109.559 32.534 109.294 32.4747C109.49 32.2769 109.559 32.0198 109.559 31.6934C109.559 31.0408 109.49 30.6551 109.294 30.4376L109.03 30.6947C108.961 30.8925 108.902 30.9518 108.902 30.9518C108.706 31.3473 108.579 31.6045 108.51 31.6638C108.382 31.5946 108.245 31.5946 108.118 31.6638V31.5946C107.922 31.5946 107.794 31.7923 107.598 32.178V32.5043C107.275 32.2472 106.882 32.2472 106.686 32.7021C106.422 32.7713 106.294 33.0284 106.225 33.4833L106.294 33.9382V34.136C106.225 34.7886 106.029 35.115 105.578 35.115L105.97 35.4413V35.6391C105.97 35.8962 106.039 36.0939 106.167 36.2225L105.97 36.7466L106.098 37.1421V37.2114L105.833 37.2806L105.902 37.5377C105.902 37.5377 105.833 37.7355 105.833 37.9332V38.0025C105.833 38.2002 105.706 38.2596 105.441 38.2596V38.5167H105.314C105.314 38.5167 105.245 38.3881 105.245 38.131H104.98L104.784 38.4574L104.912 38.5266V38.6551C104.784 38.9815 104.647 39.1792 104.451 39.1792L104.382 39.11H104.313C103.99 39.11 103.402 39.4957 102.529 40.3659C102.205 40.3659 101.941 40.623 101.676 41.0779H101.48C101.215 41.0779 100.695 40.8208 100.215 40.4944C100.215 41.0185 100.019 41.335 99.6268 41.5328L99.362 41.4042V41.335L99.4307 41.2658V41.1372C99.1071 41.1372 98.9699 41.0087 98.9699 40.8109C98.9699 40.4845 99.0385 40.356 99.1659 40.356L99.0385 39.9011L98.9699 40.0297H98.8424V39.9011H98.7149C98.7149 40.0989 98.7149 40.2274 98.6463 40.2274H98.5188C98.5188 40.2274 98.3914 40.0989 98.3914 40.0297C97.9305 38.9221 97.607 37.7948 97.5383 36.5587H97.607V36.3609L97.5383 36.2917C97.5383 36.0939 97.607 36.0346 97.607 35.8368C97.607 35.6391 97.607 35.5105 97.5383 35.4512L97.607 35.1248L97.5383 34.67L97.7344 34.3436V33.691L97.607 33.4932V33.3646C97.607 33.1075 97.7344 32.979 97.8031 32.712L97.7344 32.4549C97.7344 32.4549 97.8031 32.2571 97.8031 32.0593H97.7344C97.8619 31.9901 97.9305 31.8616 97.9305 31.6044H97.9992L98.3227 31.6737V31.6044L98.5188 30.8925C98.3227 30.8925 98.2541 30.8925 98.1953 30.4376L97.7344 30.8925V30.309L98.1266 29.9827C98.058 28.8752 98.058 26.5117 98.1266 21.241V20.2027L98.1953 19.6786L97.9992 19.1545L98.1953 18.759L97.7344 16.1978V15.6737L97.1462 14.6354L97.4109 14.4376C97.1462 14.4376 96.8226 13.9827 96.3618 12.9839H96.2343C96.2343 12.2719 96.5579 11.6588 97.1462 11.1446C97.1462 11.0161 97.3422 10.8183 97.7344 10.492L97.8031 10.6205L97.9305 10.492H98.7149L98.8424 10.6205C98.8424 10.4227 98.911 10.225 99.1071 10.0964H99.4307C99.6954 10.0964 100.019 10.0964 100.284 10.0272C100.548 10.0964 100.745 10.1557 101.068 10.1557C101.068 10.4129 101.784 10.6799 103.186 10.8677C104.039 11.3226 104.519 11.7182 104.774 11.9753L104.647 12.0445C105.912 13.4289 106.431 14.3486 106.696 14.8628V15.1199L106.235 15.4462C106.304 15.644 106.363 15.7726 106.363 15.9011V16.2274C106.363 16.4252 106.294 16.6131 106.235 16.6823V16.7515C106.235 16.7515 106.363 16.9493 106.363 17.1471V17.6712C106.363 17.869 106.294 18.0667 106.235 18.1261C106.304 18.3239 106.363 18.4524 106.363 18.581C106.363 18.7787 106.363 18.8381 106.294 18.9073C106.363 18.9765 106.363 19.0358 106.363 19.1051C106.363 19.3028 106.363 19.3622 106.294 19.4314L106.422 19.3028H106.549V19.5006L106.422 19.6292H106.353V19.7577C106.353 20.0148 106.225 20.1434 106.157 20.3412C106.157 20.3412 106.176 20.3807 106.225 20.4697C106.225 20.6675 106.157 20.8554 105.961 21.0532V21.1817C105.961 21.3795 106.029 21.4388 106.029 21.508C106.029 21.7058 105.961 21.8937 105.833 22.0321C106.098 22.1014 106.225 22.2892 106.225 22.6156C106.225 22.9419 106.098 23.1397 105.902 23.199C105.902 23.2682 105.902 23.3276 105.97 23.3276C105.647 23.5847 105.647 24.0396 105.902 24.3065L105.97 24.4351V25.1471L105.902 25.2756C106.098 25.2064 106.167 25.1471 106.225 25.1471C106.157 25.0185 106.225 24.89 106.294 24.8208L106.882 24.4351L107.01 24.3659L108.059 23.6539C108.059 23.4561 107.863 23.3968 108.647 22.9419C108.912 22.8727 109.039 22.3585 109.235 21.775L109.039 21.5773L109.108 21.0532V20.4697L109.039 19.4907L109.108 18.7787L109.039 18.7095L109.108 18.2546V17.9283L109.235 16.0198L109.108 15.9506V15.822L109.304 14.042L109.235 13.3894V11.6786L109.304 11.2831L109.235 11.2138V11.0853L109.304 10.8282C109.039 10.1162 109.039 9.57231 109.039 9.11743L108.971 9.18665H108.902C108.118 8.73177 108.441 8.66255 108.441 8.20766C108.118 8.00989 107.657 7.68356 107.108 7.10012C106.647 7.10012 106.392 6.57602 106.255 5.58714L105.667 4.87515C105.667 4.61805 105.931 4.35105 106.52 4.03461C106.647 3.70828 107.039 3.2534 107.784 2.51174C107.784 2.11619 109.51 1.4042 112.863 0.405439L114.844 0.07911H115.56C115.952 0.276885 116.413 0.464771 116.893 0.603214L116.824 0.731768V0.800989C117.609 1.51298 118.285 1.77998 118.746 1.77998C119.266 2.03708 119.854 2.43263 120.335 3.23362L120.795 3.1644C121.06 3.23362 121.648 3.61928 122.521 4.34116C122.325 4.66749 122.452 4.99382 122.913 5.18171C123.178 5.37948 123.237 5.76514 123.433 6.09147C123.502 6.28925 123.502 6.47713 123.56 6.67491C123.364 6.80346 123.237 7.00124 123.237 7.25834C123.433 7.97033 122.776 8.9691 122.972 9.42398C122.648 9.87886 122.188 10.136 122.119 10.5909C122.05 10.5909 121.923 10.6601 121.854 10.7194L122.119 11.6984V11.8962C122.119 12.351 121.992 13.0037 121.727 14.0025H121.658V14.131C121.658 14.3288 121.59 14.4574 121.393 14.6551L121.59 14.5266L121.854 14.8529L121.462 15.0507L121.266 15.4363C121.266 15.4363 121.335 15.5649 121.335 15.6341V15.8912C121.403 15.5649 121.462 15.4363 121.599 15.4363H121.727V15.6341L121.462 15.8912H121.335C121.335 15.8912 121.335 15.9604 121.266 16.0198C121.335 16.089 121.335 16.1483 121.335 16.3461C121.335 16.4747 121.335 16.5439 121.266 16.6032L121.393 16.7318H121.59V16.8603H121.393C121.393 16.8603 121.462 16.9889 121.462 17.0581V17.2559C121.462 17.3844 121.393 17.513 121.335 17.7108C121.403 17.78 121.462 17.9085 121.462 18.0964C121.462 18.1656 121.393 18.225 121.393 18.2942C121.393 18.3634 121.462 18.4227 121.462 18.492C121.462 18.8183 121.393 18.9468 121.266 19.0161C121.393 19.1446 121.462 19.3424 121.462 19.5402C121.462 19.6687 121.462 19.7379 121.393 19.7973C121.462 19.8665 121.462 19.9258 121.462 20.0544C121.462 20.1829 121.393 20.3115 121.335 20.5093C121.403 20.5785 121.462 20.707 121.462 20.9048C121.462 21.1026 121.393 21.3004 121.266 21.4289C121.335 21.4981 121.335 21.6267 121.335 21.8146C121.335 21.9431 121.266 22.0717 121.207 22.2695C121.276 22.3387 121.276 22.4672 121.335 22.5266V22.3288L121.531 22.131V22.6551L121.403 22.7244L121.335 22.5958V22.665C121.335 22.7936 121.266 22.9221 121.207 23.1199C121.207 23.1199 121.227 23.1397 121.276 23.1891L121.344 23.1199L121.413 23.2485V23.377L121.344 23.4462V23.5748C121.344 23.8319 121.217 23.9703 121.148 24.1582C121.217 24.2274 121.217 24.2868 121.217 24.4153C121.217 24.6131 121.148 24.6724 121.148 24.7417C121.276 24.7417 121.344 24.6724 121.344 24.5439H121.541C121.541 24.7417 121.609 24.7417 121.609 24.9394H121.09V24.8109L120.962 24.9394C121.158 25.0087 121.227 25.1965 121.227 25.4635C121.227 25.7899 121.158 25.9184 121.031 25.9876H121.099C121.099 25.9876 121.227 26.0569 121.227 26.1162V26.8282C121.227 27.1545 121.158 27.2831 121.031 27.3523C121.099 27.5501 121.158 27.6786 121.227 27.8072V27.8764C121.227 28.4005 120.766 28.6576 120.442 28.5884L120.315 28.8455C120.776 28.6477 121.227 28.9147 121.227 29.4981C121.227 29.5674 121.295 29.6267 121.295 29.6959H121.227C121.099 30.1508 120.835 30.2794 120.374 30.22L120.217 30.5859L120.236 30.5266ZM92.2045 16.2769C93.3125 16.2769 94.3812 17.2559 95.3617 19.1644C96.4108 21.1323 96.8912 24.2868 95.5578 26.1261L94.2929 27.6391C93.3811 28.5488 92.832 29.6168 92.7046 30.8529L92.5085 30.9815L95.5382 33.9975C95.5382 36.2324 94.6263 38.0717 92.7046 39.5056C87.6257 40.5439 87.106 39.5748 85.9098 38.7244C85.2529 38.7244 84.5764 38.2002 83.9293 37.0729C83.0762 35.8171 81.8114 33.2559 82.6644 31.4957L84.194 23.2979H83.9293L79.6347 23.7528C77.9091 23.1693 77.0659 22.6452 77.0659 22.1706V21.775C79.6347 18.6996 82.7331 16.5933 86.8903 15.3375H88.2238C89.4886 15.3375 90.4004 15.5946 90.8613 15.9209H90.9887L91.5084 16.2472H92.1653L92.2045 16.267V16.2769ZM77.2326 29.33C77.2326 29.8541 78.017 31.4957 79.674 34.314L80.9976 39.3671V41.2064L80.6741 41.5328C80.6741 42.3832 80.3505 42.9864 79.6936 43.3127H78.517C76.9286 42.8578 76.1442 42.5315 76.1442 41.5328L75.9481 41.8591L75.0363 41.5328V41.2064C71.683 38.1904 69.7613 34.8282 69.3691 31.2287C68.5847 29.5773 68.32 28.2126 68.32 27.1545C68.32 26.3041 68.7808 25.5031 69.7123 24.7911H70.3692C71.9576 25.5031 74.2029 27.1545 77.3012 29.3201H77.2326V29.33Z" fill="var(--fill-0, white)"/>
<path id="Vector_3" d="M184.948 56.356H184.752V56.2274H184.948V56.356ZM183.811 45.864L183.88 45.7948H184.007V45.9926L183.811 45.864ZM183.88 21.1125H183.683V20.9839H183.88V21.1125ZM183.811 28.7862H183.615L183.683 28.1335H183.88L183.811 28.7862ZM183.683 30.4969L183.556 30.6947L183.625 30.309L183.693 30.5068L183.683 30.4969ZM183.615 30.2398L183.683 29.9135L183.556 29.7157C183.556 29.7157 183.625 29.5179 183.683 29.4586C183.752 29.3894 183.811 29.3894 183.88 29.33L183.615 30.309V30.2398ZM183.683 21.8245L183.88 22.3486C183.88 22.3486 183.811 22.4771 183.811 22.5464C183.811 22.6156 183.811 22.6749 183.742 22.6749C183.742 22.7441 183.674 22.8035 183.615 22.8035H183.546L183.35 22.6749H183.419L183.35 22.6057V22.1508L183.615 21.4981H183.88L183.683 21.8245ZM183.223 42.2546V42.1261L183.095 41.9975C183.095 41.9975 183.164 42.1261 183.164 42.2546V42.3239L183.232 42.2546H183.223ZM183.223 24.3857V24.3164H183.095V24.3857H183.223ZM183.615 31.4759C183.419 31.9308 183.419 32.2571 183.223 32.801V32.8702H183.027L183.546 30.7639L183.615 31.4166V31.4858V31.4759ZM182.899 58.2645L182.968 58.1953H183.036V58.4524L182.909 58.2546L182.899 58.2645ZM182.634 35.6885C182.634 34.9765 183.487 34.7787 183.811 35.2336L183.88 35.1644V35.4907C183.88 35.4907 183.948 35.6193 183.948 35.6885C183.948 36.6675 182.615 36.6675 182.615 35.6885H182.634ZM182.899 20.5093L182.634 20.3807V20.1829L182.899 20.3807V20.5093ZM182.634 18.2942L182.762 18.6205L182.634 19.0754H182.899C182.899 19.0754 183.027 18.9468 183.027 18.7491L183.095 18.6205V18.492L183.223 17.9679C183.095 17.9679 183.027 17.8986 183.027 17.7701V17.5723H182.899V18.0272L182.634 18.2843V18.2942ZM182.762 32.801H182.566V32.6724H182.762V32.801ZM182.762 30.0223H182.566V29.6366H182.762V30.0223ZM182.566 39.6044H182.438V39.4759H182.566V39.6044ZM183.546 25.5723C183.674 25.6415 183.742 25.7701 183.742 25.958C183.742 26.0865 183.674 26.2151 183.615 26.4129C183.615 26.4129 183.615 26.4821 183.683 26.5414C183.683 26.6106 183.752 26.67 183.752 26.7392C183.752 27.7182 182.419 27.7182 182.419 26.7392V26.67C182.419 26.67 182.35 26.7392 182.291 26.7392L182.164 26.67L182.291 26.5414L182.164 26.0865C182.164 26.0865 182.232 25.958 182.291 25.8888C182.291 25.8195 182.36 25.8195 182.36 25.7602L182.428 25.691C182.428 25.691 182.497 25.5624 182.556 25.4932L182.428 25.3646L182.301 25.1075V24.8504C182.37 24.6527 182.428 24.5933 182.625 24.5241C182.693 24.4549 182.752 24.4549 182.889 24.4549C183.085 24.0692 183.154 23.8714 183.213 23.8714L183.409 24.0692H183.536C183.536 24.0692 183.664 24 183.664 23.9407V23.8121H183.791L183.664 24.7911C183.664 24.7911 183.733 24.9197 183.733 25.0482C183.733 25.246 183.664 25.4339 183.536 25.5723H183.556H183.546ZM182.438 21.8838H182.174V21.686H182.438V21.8838ZM182.566 31.6638C182.566 31.6638 182.634 31.6638 182.693 31.733L182.762 31.8022V31.9308L182.566 32.1286C182.566 32.1286 182.497 32.2571 182.497 32.3263C182.428 32.4549 182.428 32.5834 182.428 32.7812H182.164V32.5241L182.095 32L182.291 31.8714L182.164 31.5451L182.291 31.4166H182.419V31.6143C182.419 31.6143 182.546 31.6143 182.546 31.6836L182.566 31.6638ZM182.566 56.2176V55.3078H182.438L182.174 55.5649H181.909L182.174 56.2176H182.566ZM181.909 40.4054L182.105 40.2077L182.174 40.5933L181.909 40.3955V40.4054ZM181.84 27.8665H181.713C181.781 27.6687 181.84 27.5402 181.909 27.4808H181.977V27.7379L181.85 27.8665H181.84ZM181.487 26.7392H181.419V26.5414H181.487V26.7392ZM182.625 52.2225C182.625 51.6391 182.625 50.9666 182.556 50.3832H181.968L181.899 50.8381C181.899 51.1644 181.968 51.3622 182.026 51.4215C182.072 51.4677 182.115 51.4907 182.154 51.4907L181.889 52.7466H181.301V52.8158L182.085 53.1421H182.213C182.34 53.0729 182.477 52.8158 182.605 52.2324L182.625 52.2225ZM182.164 49.1174C181.968 48.9889 181.84 48.7911 181.84 48.4648C181.84 48.0099 182.036 47.8121 182.428 47.8121V47.4265L182.301 47.2979L182.37 47.2287V45.3201H182.301C182.301 45.3201 182.232 45.3201 182.232 45.3894C182.105 45.4586 181.968 45.5179 181.772 45.7157C181.703 45.7157 181.703 45.7849 181.644 45.7849C181.644 45.7849 181.624 45.8245 181.575 45.9135C181.575 45.9135 181.575 45.9827 181.507 46.042V46.754L181.703 46.9518V47.0803C181.703 47.0803 181.703 47.1496 181.634 47.2089C181.566 47.2781 181.438 47.2781 181.242 47.2781V47.4759C181.242 47.4759 181.37 47.6044 181.37 47.6737C181.37 47.7429 181.438 47.8022 181.438 47.8714V47.9407H181.507L181.634 47.8121H181.703L181.83 47.9407L181.703 48.3955L181.83 49.1768H182.154V49.1075V49.1273L182.164 49.1174ZM181.222 40.2077V39.9506H181.095V40.2077H181.222ZM180.762 45.6564V45.7849L180.693 45.9827L180.762 46.1112H180.889L181.017 45.6564L180.693 45.4586V45.5278L180.762 45.6564ZM180.889 33.9679V33.7108H180.693V33.9679H180.889ZM181.017 33.0581H180.889L180.693 33.2559H181.017V33.0581ZM180.752 25.7108H180.879L181.007 25.3844H180.683V25.4536L180.752 25.7108ZM181.271 19.5303L180.683 19.7281V20.1829C180.879 20.1137 180.948 20.0544 181.144 19.9852H181.213C181.409 19.7874 181.536 19.7874 181.732 19.7281L181.997 19.471C182.066 19.2732 182.125 19.2138 182.125 19.2138V19.1446L181.928 18.6205H181.468L181.271 19.0754V19.5303ZM180.752 32H181.017L180.752 31.7429V31.6143H180.879L181.007 31.7429H181.075V31.1595L180.615 31.288V31.8714L180.742 32H180.752ZM181.017 48.0297L181.085 47.9604H180.428L180.556 48.2176C180.82 48.2176 180.948 48.1483 181.017 48.0198V48.0297ZM180.428 40.4153H180.556L180.752 40.089L180.683 40.0198H180.615L180.418 40.2769V40.4054L180.428 40.4153ZM180.624 38.0519L180.693 37.9234V37.7256L180.428 37.4685L180.232 37.6663C180.301 37.864 180.428 37.9926 180.624 38.0618V38.0519ZM180.105 25.8393V25.5822H179.977V25.8393H180.105ZM179.585 19.5896H179.654L179.781 19.1941L179.654 19.1248H179.585L179.389 19.3226V19.3918L179.585 19.5896ZM179.389 41.2559L179.32 41.9085L179.389 42.0371H179.781L179.85 41.78C179.85 41.4536 179.781 41.2559 179.585 41.1965H179.516L179.585 40.6724V40.4153L179.389 40.2176L179.193 41.1273L179.389 41.2559ZM179.516 38.2398L179.193 38.4969V38.8232H179.262C179.262 38.8232 179.458 38.8925 179.526 38.9518V39.021L179.654 38.8925V37.8541H179.389V37.9234L179.516 38.2497V38.2398ZM179.585 37.5871L179.516 37.4586V37.3894L179.585 37.063H179.193L179.124 37.6465L179.585 37.5773V37.5871ZM179.124 30.8826L179.193 31.5352H179.389L179.585 31.3375V31.2682L179.516 30.8727L179.977 30.0321V29.775H179.781C179.654 29.775 179.585 29.9036 179.585 30.1014L179.516 30.2299H179.389L179.193 30.0321L179.124 30.8727V30.8826ZM179.124 36.262L179.585 36.1928V35.5402H179.193L178.869 35.9951L178.938 36.2522H179.134L179.124 36.262ZM178.516 46.2991V46.5562H178.644L178.909 46.4277H178.977V46.5562L178.712 46.8133C179.301 46.8133 179.624 46.8826 179.624 47.0705L179.36 47.911L179.487 48.0396V48.1088L179.36 48.6922V49.1471H179.487L179.948 48.9493V48.6922H179.624V48.4944C179.82 48.3659 179.948 48.2373 180.016 48.1088C180.016 48.1088 180.036 48.0692 180.085 47.9802C180.085 47.9802 180.154 47.9802 180.154 47.911C180.222 47.8418 180.222 47.7824 180.222 47.7132L180.095 47.3276L180.222 47.2583H180.615V47.4561H181.007C181.007 47.3276 181.007 47.2583 180.938 47.199L180.869 47.1298C180.801 47.0012 180.673 46.932 180.546 46.932C180.477 46.8628 180.418 46.8628 180.281 46.8628L179.762 46.4079L180.085 46.0816V46.0124C180.085 45.8146 180.016 45.8838 180.016 45.686V45.4289C180.016 45.4289 179.948 45.3597 179.948 45.3004V45.1026C179.948 45.1026 179.879 44.9048 179.82 44.8455C179.752 44.7763 179.693 44.6477 179.624 44.5884H179.428L179.232 44.7862C179.232 44.7862 179.163 44.8554 179.163 44.9147C179.095 44.9839 179.095 45.1125 179.095 45.241V45.4981L178.83 45.8245L178.899 46.0816L178.507 46.2794L178.516 46.2991ZM178.056 47.1001L178.32 46.843V46.7145L178.193 46.4574H178.065L177.997 46.843L178.065 47.1001H178.056ZM178.056 48.7318L177.928 48.8603L178.056 49.0581H178.252V48.9889L178.32 47.822L177.997 47.7528L177.801 48.4054L178.065 48.7318H178.056ZM173.173 48.7318L172.977 48.8603H173.173V48.7318ZM171.78 52.0939L171.653 51.9654H171.526V52.2225L171.79 52.0939H171.78ZM171.516 48.1483V47.9506H171.447V48.1483H171.516ZM171.516 47.4957V47.2979H171.447V47.4957H171.516ZM171.516 44.8059H171.78L172.104 44.6082L171.78 43.8962H171.457V44.351L171.526 44.8059H171.516ZM171.251 48.9889C171.32 49.3152 171.447 49.513 171.516 49.513L171.78 49.2559V49.1866L171.457 48.7318H171.329V48.9889H171.261H171.251ZM171.771 29.1026C171.643 28.9048 171.506 28.7763 171.447 28.7763L171.055 29.0334L171.182 29.2905L171.771 29.0927V29.1026ZM183.84 39.2781L183.644 39.4759L183.321 39.3473L183.193 39.4759L183.066 39.3473V39.2781C182.674 39.4067 182.213 39.1496 182.213 38.5661C182.213 38.3684 182.213 38.309 182.281 38.2398V37.9135H182.085L181.497 38.4969V39.3473C181.497 39.3473 181.497 39.4166 181.428 39.4759C181.428 39.4759 181.409 39.5155 181.36 39.6044H181.291L181.615 40.3857C181.615 40.3857 181.546 40.5142 181.487 40.5142C181.419 40.5834 181.291 40.6428 181.095 40.6428L181.222 41.424C181.154 41.5525 181.026 41.6811 180.899 41.7503H180.575L180.644 41.8789V42.0074L180.713 41.8789H180.909C180.909 41.8789 180.977 41.8789 181.036 41.9481C181.105 41.9481 181.164 41.9481 181.232 42.0173C181.428 42.0865 181.497 42.2151 181.497 42.4722L181.624 43.3127C181.624 43.3127 181.497 43.3127 181.497 43.382C181.497 43.382 181.448 43.4017 181.37 43.4512C181.37 43.4512 181.37 43.5204 181.301 43.5797C181.301 43.5797 181.301 43.6489 181.232 43.7083C181.232 43.9061 181.164 43.9061 181.164 44.0939C181.164 44.1632 181.095 44.2225 181.095 44.2917V44.4895L181.026 44.5587H180.899C180.771 44.5587 180.703 44.4895 180.703 44.3609V44.1632H180.634L180.311 44.4895V44.8158L180.771 44.9444L180.644 45.2707H180.771L181.232 44.9444L181.624 45.0136H182.34C182.34 44.3016 182.34 43.6292 182.409 42.9073C182.017 42.8381 181.821 42.581 181.821 42.1953V41.9382L181.693 42.0074L181.624 41.8789V41.7503H181.948L182.075 41.6218C182.075 41.6218 182.007 41.424 182.007 41.2262C182.007 41.0284 182.075 40.8307 182.203 40.7713L182.272 40.7021C182.272 40.7021 182.203 40.5043 182.203 40.3065C182.203 39.3276 183.536 39.3276 183.536 40.3065C183.536 40.6329 183.409 40.8307 183.213 40.89C183.281 41.0878 183.34 41.1471 183.34 41.2163V41.3449L183.86 42.1261C183.791 42.3239 183.664 42.4524 183.468 42.4524C183.536 42.5216 183.664 42.6502 183.733 42.848H183.86V42.9172L183.733 43.115C183.664 44.4994 183.664 45.8739 183.733 47.1891L183.86 47.0606L183.987 47.1298V47.2583L183.86 47.3276H183.733C183.733 48.0396 183.801 48.6527 183.86 49.2361H184.056V49.3053L183.86 49.6316V49.7009L184.056 49.958V50.0272L183.86 50.3535V50.4227C184.056 50.492 184.125 50.6205 184.184 50.8084L184.056 51.2633H183.929V51.3918H184.056C184.056 51.3918 184.125 51.4611 184.184 51.6489C184.252 51.7775 184.252 52.0346 184.252 52.3609L183.987 52.4895L183.919 52.4203V53.0729C183.919 53.0729 184.115 52.9444 184.184 52.9444H184.252C184.252 53.1421 184.321 53.2707 184.38 53.33H184.448L184.713 53.2015L184.448 53.9135L184.713 54.1112V54.1805L184.252 54.1112L184.184 54.1805L184.311 54.6354L184.242 55.0902L184.311 55.2188V55.3473L184.242 55.6737L184.438 55.8714V55.8022C184.438 55.8022 184.438 55.6737 184.507 55.6737L184.635 55.5451H184.899L184.772 55.6737C184.576 55.8714 184.507 56.1286 184.448 56.3857L184.84 57.0383H184.713C184.713 57.0383 184.586 57.1075 184.517 57.1669C184.471 57.213 184.448 57.2559 184.448 57.2954V57.8195C184.448 57.9481 184.448 58.0173 184.38 58.0766C184.311 58.403 184.184 58.5315 184.056 58.5315H183.987C183.791 58.4623 183.664 58.403 183.595 58.3337L183.468 58.2052C183.468 58.2052 183.399 58.0074 183.399 57.9481V57.8195C183.399 57.8195 183.331 57.691 183.272 57.6218C183.203 57.5525 183.076 57.4932 182.811 57.424C182.742 57.424 182.683 57.3548 182.615 57.3548H182.419L182.154 57.157H182.026C182.026 57.157 181.958 57.157 181.958 57.2262L181.83 57.3548V57.6811H181.703L181.311 57.3548L181.115 57.4833L180.791 57.3548C180.791 57.6119 180.203 57.9382 179.007 58.3337L178.546 57.8096C178.35 57.8096 178.281 57.8096 178.222 57.7404L178.095 58.136C177.899 58.848 177.183 58.7194 176.918 58.2645L176.526 58.4623H176.457C176.457 58.4623 176.389 58.4623 176.33 58.5315H176.134V58.6601C176.134 58.6601 176.134 58.7293 176.065 58.7886C175.997 58.9864 175.869 59.115 175.604 59.2435L175.536 59.3721C175.34 59.3721 175.408 59.4413 175.212 59.4413L174.82 59.1842V59.115C174.496 59.4413 172.379 59.3127 172.379 58.7194C172.055 58.7194 171.859 58.9172 171.859 59.2435H171.731L171.604 59.1743L171.535 59.2435H171.339V59.1743L171.408 58.3931L171.339 58.3239C171.339 58.3239 171.143 57.7998 171.074 56.8702V56.801L171.271 55.9506V55.822C171.202 55.1693 171.074 54.843 170.947 54.843L171.074 54.3189L170.947 52.6675L171.074 52.5983H171.143L171.074 52.0742V50.9666C171.074 50.8381 171.006 50.6403 170.81 50.3832L170.741 50.314C170.741 50.314 170.81 50.2447 170.937 50.2447H171.133V49.7899L171.065 49.2064C171.065 49.2064 171.133 49.1372 171.133 49.0779C171.329 48.8208 171.261 48.5538 171.329 48.2967V47.8418H171.006C171.006 47.8418 170.878 47.644 170.878 47.5847V47.5155L171.143 47.1891V47.0606H170.947C170.947 47.0606 170.878 46.932 170.878 46.8628V46.7342L171.074 46.3486L170.947 45.8937C171.143 45.8937 171.271 45.7651 171.339 45.4388L171.271 45.3696C171.398 45.3696 171.467 45.1718 171.535 44.7169L171.271 44.4598L171.339 44.0049H171.074L171.143 43.8764V43.6786C171.143 43.6786 171.143 43.6094 171.074 43.5501C171.074 43.4215 171.006 43.293 170.878 43.1644C170.81 42.9666 170.751 43.0358 170.682 42.8381C170.682 42.581 170.751 42.3832 170.81 42.314L170.878 42.2447H170.947L170.682 32.0099V31.2979L170.878 31.0408V30.843L170.614 30.5167V30.3189L170.682 30.1904L170.614 30.0618L170.878 29.9926V29.2806H170.751C170.751 29.2806 170.623 29.2806 170.623 29.2114C170.555 29.2114 170.496 29.1422 170.496 29.0136V28.8158L170.761 28.5587L170.692 28.4302V28.3609L170.761 27.9654L170.692 27.8368L170.761 27.3127V26.9271L170.633 26.7293L170.702 26.6601V26.5315L170.633 25.8789L170.898 23.2583L170.771 22.8035L171.094 22.0915V21.6959L170.898 21.4388L171.094 21.241L170.898 21.1125L170.967 20.6576V19.7478C170.898 19.4907 170.898 19.1644 170.839 18.8381C170.839 18.7689 170.771 18.7095 170.771 18.6403C170.771 18.5711 170.702 18.3832 170.643 18.1162V17.9876L170.712 17.9184H170.78L170.516 17.1372V16.6131C170.516 16.6131 170.516 16.4845 170.584 16.4153C170.653 16.4153 170.712 16.3461 170.78 16.3461H170.908V15.822L170.643 15.7528L170.712 15.6836V15.3572L170.447 14.9716L170.516 14.6452L170.251 12.6082L170.32 12.2818L169.731 8.8801C169.535 8.8801 169.408 8.81088 169.212 8.68232C169.212 8.68232 169.143 8.68232 169.084 8.6131C169.015 8.54388 168.888 8.54388 168.819 8.356C167.29 7.37701 168.104 7.51545 167.555 6.97157V6.90235H167.358C167.358 6.90235 167.231 6.7738 167.231 6.70457V6.5068L166.839 6.18047V6.05192C166.966 5.59703 167.162 5.2707 167.358 5.07293H167.555V5.00371L167.682 4.87515H167.751C167.751 4.87515 167.878 4.80593 167.947 4.80593H168.143V4.67738H167.878V4.60816L168.594 4.15328C168.594 4.02472 168.663 3.89617 168.79 3.82695C168.859 3.75773 168.986 3.69839 169.251 3.62917C169.251 3.55995 169.251 3.50062 169.319 3.4314V3.36218L169.447 3.23362C169.447 3.23362 169.516 3.23362 169.574 3.1644H169.898L170.614 3.36218L170.682 3.03585L171.594 3.1644L172.379 2.96663C172.379 2.96663 172.379 3.09518 172.447 3.1644H172.643L174.889 2.96663L175.938 3.36218L176.065 3.1644L176.653 3.6885H176.85V3.55995C176.85 3.55995 176.85 3.49073 176.918 3.4314L177.046 3.30284C177.046 3.30284 177.173 3.23362 177.369 3.23362L177.634 3.49073L177.83 3.88628V4.14339H178.095L178.222 3.6885H178.291L178.359 3.75773C178.359 3.75773 178.428 3.75773 178.487 3.82695C178.683 3.89617 178.879 4.02472 179.144 4.21261L179.664 4.14339C179.791 4.34116 179.987 4.40049 180.183 4.46972C180.252 4.53894 180.379 4.59827 180.507 4.59827C180.575 4.66749 180.771 4.72682 181.026 4.79604H181.222L182.399 5.25093V5.50803L182.86 5.43881L183.84 6.4178C183.84 6.4178 183.968 6.48702 184.105 6.48702C184.301 6.55624 184.301 6.6848 184.497 6.74413C184.497 6.74413 184.536 6.76391 184.625 6.81335L184.889 7.07046V7.13968C184.889 7.13968 184.958 7.2089 184.958 7.26823V7.33745C184.958 7.33745 185.027 7.46601 185.027 7.59456L185.291 7.85167H185.36V8.04944H185.233V8.178L185.89 8.63288V10.0865C185.89 10.3436 185.958 10.5414 186.086 10.67L185.958 11.2534V11.8368C185.831 11.9654 185.762 12.0346 185.762 12.0939L185.497 12.7466C185.233 12.9444 185.037 13.2015 184.978 13.4586C184.782 13.6564 184.782 13.9135 184.85 14.1112C184.654 14.1805 184.527 14.2398 184.331 14.309L184.007 15.8319L183.938 15.9011C183.938 15.9011 183.811 16.1582 183.811 16.356V16.5538L183.88 16.623V16.7515L183.811 17.0779L184.007 17.2757L183.546 18.1162L183.811 18.4425V18.5711L183.88 18.4425H184.076V18.6996C184.076 18.6996 183.948 18.8282 183.948 18.8974C183.948 18.8974 183.929 18.9172 183.88 18.9666C183.683 19.2237 183.615 19.4907 183.615 19.6786H183.546L182.958 19.5501H182.889C182.889 19.5501 182.889 19.6786 182.821 19.7478L182.752 19.8171C182.752 19.8171 182.752 19.8863 182.683 19.9456C182.683 19.9456 182.683 20.0148 182.615 20.0742L182.419 20.2719V20.9246L182.291 21.0532L181.899 20.9246V20.9938C181.899 20.9938 181.772 21.1224 181.634 21.1224L181.507 21.1916V21.3201L181.83 22.1014L181.899 22.0321H182.291V22.2299C182.164 22.2299 182.095 22.2299 182.026 22.2991C181.958 22.2991 181.958 22.3684 181.958 22.4277H182.154C182.154 22.4277 182.223 22.4969 182.281 22.4969C182.34 22.4969 182.477 22.5661 182.546 22.6255C182.615 22.6255 182.674 22.6947 182.742 22.754V23.1496C182.674 23.2781 182.546 23.3473 182.419 23.3473L181.83 23.2188H181.703C181.703 23.2188 181.634 23.288 181.575 23.288C181.575 23.288 181.556 23.3276 181.507 23.4166V23.5451L181.438 23.6143C181.438 23.6143 181.37 23.7429 181.37 23.9407C181.301 24.1384 181.301 24.3263 181.242 24.5241L181.83 24.7219V24.9197C181.634 24.9197 181.566 24.9197 181.507 24.9889V25.0581L181.703 25.513L181.634 25.6415C181.634 25.6415 181.566 25.6415 181.507 25.7108C181.438 25.78 181.438 25.8393 181.438 25.9085V26.1063L181.311 26.2349H181.115L180.791 26.1063V26.2349L180.722 26.492C180.722 26.492 180.722 26.6205 180.791 26.6897C180.791 26.759 180.791 26.8183 180.86 26.8183L180.987 26.9468H181.056L181.252 26.7491L181.517 27.204C181.517 27.6588 181.448 27.8566 181.389 28.1137V28.2423L181.262 28.3708C181.262 28.3708 181.193 28.4994 181.134 28.4994H181.066C181.066 28.4994 180.938 28.4994 180.869 28.5686C180.938 28.5686 180.87 28.6378 180.742 28.7664V29.0235H180.811L181.664 28.3115H181.928V28.5686H182.125L182.448 28.1137V27.9159L182.183 27.6588L182.448 27.4611V27.7874L182.576 27.9159H182.644L182.968 27.7874H183.036L182.644 28.5686L182.909 28.8949C182.909 28.8949 182.781 28.9642 182.713 28.9642C182.644 28.9642 182.585 28.9642 182.517 29.0334H182.448V29.4883H182.321C182.321 29.4883 182.252 29.3597 182.193 29.2905C182.125 29.2905 182.193 29.2213 181.997 29.2213H181.928L181.86 29.152V29.0235H181.987L182.115 29.152H182.183L182.311 29.0235V28.9543L181.85 28.7565H181.33C181.33 28.7565 181.33 28.885 181.262 28.885C181.193 29.0828 181.134 29.2114 180.938 29.2806L180.869 29.3498H180.605L180.673 29.8047L180.477 30.0025C180.477 30.2002 180.477 30.3288 180.546 30.3881C180.546 30.5859 180.615 30.5167 180.615 30.5859C180.615 30.6551 180.615 30.6551 180.683 30.6551H180.948L181.34 30.398H181.536L181.468 30.6551L181.536 30.8529L181.34 32.4351L181.536 32.6922V33.3449C181.468 33.5426 181.409 33.7305 181.34 33.9975C181.34 34.0667 181.271 34.1953 181.213 34.2546C181.144 34.3832 181.017 34.5117 180.889 34.581H180.82C180.82 34.581 180.752 34.581 180.752 34.6502C180.683 34.7194 180.683 34.9073 180.683 35.2336H180.948C180.948 35.2336 181.075 35.1051 181.144 35.1051C181.272 34.9765 181.409 34.9073 181.605 34.9073C181.673 34.8381 181.801 34.8381 181.87 34.8381V34.4425L181.938 34.3733H182.007L182.134 34.2447V34.1755C182.134 34.1755 182.262 34.1063 182.458 34.1063V33.78H182.134V33.6514L182.458 33.3943L182.33 33.3251V32.9988L182.458 32.8702V32.9988H182.527C182.595 32.801 182.723 32.7417 183.046 32.7417L182.585 34.848V35.1743C182.585 35.1743 182.517 35.2435 182.517 35.3028V35.3721C182.517 35.3721 182.517 35.4413 182.448 35.4413L181.928 35.3127L180.82 36.4796V36.9345C180.82 36.9345 180.948 37.1323 181.017 37.1916C181.085 37.2608 181.144 37.2608 181.281 37.2608L181.477 37.1323V37.5278H181.742V37.1323H181.87L182.134 37.33L182.33 36.7466H182.919L183.046 36.9444L183.311 36.6873C183.507 36.618 183.576 36.5587 183.576 36.5587C183.772 36.4895 183.84 36.4302 183.899 36.4302L183.703 37.0828H183.772C183.968 37.0828 183.899 37.2114 183.448 37.4685C183.38 37.5377 183.321 37.6663 183.252 37.7256L183.056 37.5278H182.987C182.987 37.5278 182.86 37.597 182.791 37.6564C182.664 37.7256 182.595 37.7849 182.595 37.8541C183.056 37.6564 183.576 37.8541 183.576 38.4376C183.576 38.8232 183.38 39.0902 183.115 39.1496L183.831 38.8925L183.899 39.021V39.1496L183.919 39.2386L183.84 39.2781ZM157.25 40.534V40.6625C157.181 40.9197 157.122 41.1174 157.054 41.3745V41.5031C156.985 41.6316 156.985 41.8294 156.985 42.1557C156.72 42.8677 156.789 43.9357 156.073 44.5192C156.201 45.0433 156.201 45.4981 156.073 45.9728C155.093 46.9518 154.612 47.8813 157.465 46.8232L154.504 49.3152V48.534H154.24L153.975 48.7911H153.847C153.847 48.7911 153.72 48.6625 153.72 48.4054H153.592C153.465 48.4054 153.396 48.534 153.396 48.7911L153.2 48.9197H153.132L153.063 48.534H152.867L152.739 48.9197L152.867 49.5031L152.739 49.3053H152.671L152.014 49.5624C151.357 49.5624 151.033 49.4339 151.033 49.1669L151.23 49.0383L150.837 48.9098L150.71 49.0383L150.514 48.2571V47.6737L150.975 47.021L151.239 47.6737V47.7429H150.975V48.267H151.239C151.239 48.0692 151.367 47.8714 151.7 47.6836V47.2287C151.504 47.1595 151.377 46.9023 151.377 46.576H151.249C150.661 46.9023 150.2 47.1595 150.2 47.4265H150.004V46.9023C149.68 47.0309 149.543 47.4265 149.543 48.0099L149.671 47.8813H149.867L149.474 48.4054H149.014L148.945 48.2769H148.818L148.749 48.4054L148.553 47.2386L148.68 47.1693L148.161 46.9122L147.837 47.4363C147.376 47.2386 147.121 47.0507 147.121 46.9122V46.7145L147.514 46.3288L147.121 46.131V45.9332C147.386 45.9332 147.514 45.8047 147.514 45.6069V44.9543L147.837 44.6279L148.033 44.885L147.965 44.9543L148.033 45.152V45.5377L147.837 45.6663L147.965 46.3189H148.161C148.749 45.6069 148.945 44.9938 148.945 44.796V44.3412C148.68 44.3412 148.553 44.2719 148.553 44.0841L149.141 43.2435L149.014 43.1743V42.9765L149.141 42.5909V42.4623H149.014L148.69 42.7886H148.563L148.69 42.7194L148.563 42.5909V42.3337L149.896 40.2967L149.7 40.0396L149.769 39.911H149.896L150.161 40.0396C150.484 39.7824 150.622 39.4561 150.622 39.0606V38.9913H150.553L150.033 39.3869H149.906V39.3177C150.171 38.0618 150.494 37.4091 150.69 37.0828L150.622 37.0136V36.9444L150.749 36.6873C150.945 36.6873 151.073 37.0828 151.073 37.7948L150.877 38.0519C150.945 38.2497 151.2 38.3782 151.533 38.3782V38.2497L151.406 37.4685C151.798 37.2707 151.994 37.0136 151.994 36.5587L151.926 36.4895H151.798L151.926 35.9061V35.4512L151.269 36.2324H151.2V36.1632L151.269 35.9654V35.8962L151.2 35.6984L151.524 35.3721L151.259 34.7194L151.72 34.5216L151.592 33.6712L152.053 33.4141V32.7614H151.926V32.2373C152.249 32.2373 152.445 31.9802 152.445 31.4561C152.641 31.4561 152.71 31.3869 152.71 31.199L152.583 30.3486C152.583 30.3486 152.847 29.8245 153.043 28.8356C153.112 28.8356 153.171 28.6378 153.171 28.3115L153.043 28.0544L153.112 27.8566L152.72 26.6897L151.543 27.3424H151.279L151.014 27.5995L149.033 29.6366L149.161 29.7651V29.9629L148.965 30.22L148.769 29.9629H148.7C148.376 30.1607 148.043 30.6749 147.719 31.4759L147.651 31.3473H147.386C146.925 31.6737 146.729 32.0593 146.533 32.801H146.337C146.209 32.801 146.072 32.5439 145.945 31.9506H145.817L145.621 32.2769L145.69 32.6032L145.494 32.9295V33.1273L145.562 33.3251V33.3943C144.229 35.1051 142.797 35.9555 141.14 35.9555C141.14 36.1533 140.229 36.2818 138.375 36.2818H138.052C137.787 36.0247 137.336 35.6984 136.326 35.5006C136.13 35.3028 135.542 35.0457 134.542 34.5909L132.296 32.6823H132.169L131.845 32.9394C131.061 32.9394 130.453 32.8109 130.12 32.5538C130.12 31.8418 130.316 31.5155 130.777 31.5155L131.041 31.1891C130.845 30.8628 130.777 30.4771 130.777 29.9333L130.845 29.8047H130.973L130.845 29.6761V29.4784C130.845 29.2806 131.041 29.152 131.502 29.0828C131.502 28.8257 131.63 28.6972 131.826 28.6972L131.757 28.1137C134.395 27.2732 136.052 26.7886 136.375 26.4623L136.503 26.3337C136.699 26.3337 137.091 26.0766 137.679 25.5525C138.856 24.9691 139.464 24.5142 139.532 24.1681C140.797 22.843 141.513 22.3288 141.778 22.131L142.297 22.3288C142.297 22.0025 142.69 21.7454 143.474 21.5476C143.474 20.6972 143.543 20.2225 143.739 20.2225L144.131 19.7676L144.915 20.1632L145.631 19.1842V18.6007H145.896L146.288 18.9271L147.2 18.2151H147.984V18.0865L147.916 17.958V17.8294L148.112 17.7009L148.504 17.8294L149.837 16.9889L149.71 16.9197V16.8504L149.975 16.5933H150.955C150.955 16.3956 151.151 16.1978 151.475 16.0692L151.867 16.1978L151.935 16.0692H152.004L151.935 16V15.8022C151.935 15.6045 152.259 15.4067 152.985 15.3473H153.112V15.6045H153.7V15.3473H153.181V15.2188L153.965 14.9617H155.887L156.014 15.0309L156.279 14.9617L157.603 15.2188L158.063 15.021C158.063 15.021 158.132 15.4067 158.848 14.9518H158.917C159.181 14.9518 159.436 15.0803 159.632 15.2781H160.093L160.289 15.021H160.681C162.603 15.3473 163.907 15.9308 164.515 16.9295L164.584 16.8603H164.907C165.035 16.8603 165.231 17.2559 165.496 18.1162L165.819 18.5019V18.6304L165.75 19.2138C166.015 19.2831 166.143 19.4116 166.143 19.6094L165.878 20.4499L166.466 21.3004C166.27 23.466 165.947 24.5142 165.486 24.5142L164.829 25.3548H164.633L164.564 25.2262H164.495C164.299 25.5525 164.172 25.8096 164.172 26.136V26.2052C163.711 26.136 163.388 26.403 163.388 26.8578V27.115C163.123 27.3721 162.995 27.5698 162.927 27.6984C162.799 27.8269 162.731 28.0247 162.731 28.2225C162.662 28.4203 162.731 28.5488 162.534 28.7466L161.142 31.11L160.946 31.4957L161.074 31.6934V31.7627C161.074 31.9604 160.809 32.5439 160.289 33.1471L160.417 33.3449C160.093 35.1248 159.828 35.9654 159.632 35.9654L159.436 35.7083L159.309 35.7775V35.9753L159.436 36.0445V36.2423L159.24 36.6378L159.309 36.7664C159.309 36.7664 159.113 36.9642 158.917 37.3498L159.044 37.7454L158.583 38.0717V38.2695C158.456 38.3387 158.318 38.4672 158.26 38.6551C158.191 38.7244 158.132 38.7837 158.132 38.8529C157.936 39.1792 157.867 39.5056 157.671 39.8319C157.671 39.8319 157.652 39.8714 157.603 39.9604C157.475 40.1582 157.338 40.3461 157.279 40.6131L157.26 40.5439L157.25 40.534Z" fill="var(--fill-0, white)"/>
<path id="Vector_4" d="M247.336 19.9852H247.072V19.9159H247.336V19.9852ZM247.209 39.6737H247.013V39.4759H247.209V39.6737ZM247.209 39.021H247.013V38.7639H247.209V39.021ZM247.081 33.6415H247.013L246.944 33.5723V33.4438L247.013 33.3152C247.081 33.513 247.013 33.5723 247.081 33.6415ZM246.954 34.225L246.827 34.0964V34.2942L246.954 34.225ZM246.954 32.1879V32.8405L246.758 32.5834C246.827 32.3857 246.885 32.2571 246.954 32.1978V32.1879ZM246.827 27.5204V27.8467L246.758 27.5896L246.827 27.5204ZM246.503 26.3535L246.572 26.4227V26.2942C246.572 26.2942 246.503 26.2942 246.503 26.3634V26.3535ZM246.179 55.5056H246.111L246.238 55.7033L246.366 55.5748C246.366 55.5748 246.238 55.5056 246.17 55.5056H246.179ZM245.856 47.9604C245.856 47.9604 245.924 47.8319 245.924 47.7627C245.924 47.7627 245.905 47.7429 245.856 47.6934V47.5649L245.787 47.6341L245.856 47.9604ZM245.856 44.1434H245.728V44.0742H245.856V44.1434ZM245.728 38.5661V38.3684H245.856L245.728 38.5661ZM245.993 19.2633L246.062 19.1941C246.062 19.1941 245.934 18.9963 245.934 18.67V18.0173H245.738V18.2151C245.738 18.67 245.807 18.9271 246.003 19.2534L245.993 19.2633ZM245.924 53.1421C245.924 53.1421 245.924 53.0729 245.993 53.0729C245.924 53.0037 245.924 52.8158 245.924 52.618C245.924 52.3609 245.993 52.1632 246.052 52.0939C246.052 51.8962 246.121 51.7676 246.179 51.5698C246.111 51.5006 246.052 51.3721 246.052 51.2435L245.983 51.1743H245.915C245.915 51.3028 245.787 51.4314 245.454 51.5698V51.6984C245.454 51.6984 245.581 51.8962 245.777 51.9555V52.1533L245.65 52.6082C245.777 52.6082 245.846 52.8059 245.915 53.1323L245.924 53.1421ZM245.66 40.0198V39.9506H245.464V40.0198H245.66ZM245.787 48.089H245.719L245.522 47.8912H245.395V48.089C245.395 48.2868 245.522 48.3461 245.719 48.4153L245.787 48.3461V48.089ZM245.395 33.2559H245.268V33.1273H245.395V33.2559ZM245.856 57.5525V56.6428H245.728L245.464 56.8999H245.199L245.464 57.5525H245.856ZM245.66 53.8047L245.532 53.7355C245.532 53.864 245.405 53.9332 245.209 53.9332L245.473 54.3189C245.67 54.2497 245.797 54.1904 245.934 54.1904V53.6069C245.807 53.6069 245.738 53.6761 245.67 53.8047H245.66ZM245.856 17.0383C245.787 16.9098 245.787 16.7812 245.787 16.5142C245.787 16.3164 245.787 16.2571 245.856 16.1879C245.787 16.1187 245.787 15.9901 245.787 15.7923V15.7231L245.268 15.5946L245.395 15.7231V15.7923L245.199 16.1187H245.522V16.2472L245.395 16.445L245.464 16.5142L245.199 17.3646L245.268 17.4932H245.395C245.591 17.4932 245.66 17.2954 245.66 16.9098H245.787L245.856 17.0383ZM246.052 14.0915H245.395L245.003 14.2892C245.13 15.0012 245.326 15.3968 245.66 15.3968L245.787 15.2682H245.915V15.0705C245.915 14.7441 245.983 14.6156 246.042 14.5464V14.2892L245.522 14.6848H245.454L245.974 14.1607L246.042 14.2299V14.1014L246.052 14.0915ZM246.376 50.403V50.2052C246.376 50.0074 246.375 49.8789 246.444 49.8195C246.179 49.7503 246.052 49.5624 246.052 49.1669V49.0383C245.856 48.9691 245.787 48.7812 245.787 48.5834L245.719 48.6527H245.199L244.934 49.0383V49.2954H245.003L245.395 49.2262L245.522 49.5525L245.395 49.9382L245.66 50.0074L245.728 49.9382L245.924 50.3931L245.856 50.848L245.924 50.9765H245.993L246.062 50.848C246.13 50.6502 246.189 50.4524 246.385 50.3931L246.376 50.403ZM246.052 44.8949V44.1137C246.052 43.8566 246.121 43.6588 246.248 43.5896C246.121 43.4611 246.052 43.2633 246.052 43.0062C246.052 42.8084 246.121 42.6106 246.248 42.4821C246.121 42.3535 246.052 42.1557 246.052 41.958C246.052 41.7602 246.052 41.7009 246.121 41.6316C246.052 41.5624 246.052 41.4339 246.052 41.246V40.534C245.856 40.4648 245.787 40.2769 245.787 40.0099L244.934 40.7911L244.866 40.9889L244.993 41.4438L245.385 41.3152L245.454 41.5723H245.719C245.719 41.3745 245.787 41.246 245.846 41.246L245.974 41.7009L245.777 41.958L245.709 41.8294H245.64L245.513 41.958V42.0865C245.709 42.0865 245.836 42.2843 245.836 42.7392L245.905 42.9963H245.836L245.64 42.7985C245.64 42.9963 245.444 43.1941 244.983 43.4512L244.915 43.9061V43.9753H245.238C245.238 43.7775 245.307 43.7182 245.434 43.7182L245.503 43.8467V43.9159C245.503 45.0235 245.307 45.5674 244.983 45.5674V46.4079L244.856 46.665L244.924 47.0507H245.189V46.8529H245.454L245.522 46.9221H245.65L245.522 47.0507V47.3078L245.719 47.5056V47.0507H245.787C245.787 46.8529 245.856 46.665 246.052 46.5958C245.856 46.398 245.787 46.2002 245.787 46.0124H245.719V45.7553L245.787 45.8838V45.4883C245.787 45.1619 245.856 44.9642 246.052 44.9048V44.885V44.8949ZM245.924 26.3733C245.728 26.2447 245.601 26.047 245.601 25.7206C245.601 25.4635 245.67 25.2658 245.797 25.1965C245.67 25.068 245.601 24.8702 245.601 24.6724V24.5439L245.473 24.4153H245.542L245.473 24.2868L245.797 23.9604V23.8319C245.797 23.6341 245.866 23.5056 245.924 23.4363C245.856 23.3671 245.797 23.1792 245.797 22.9122C245.797 22.7145 245.797 22.5859 245.866 22.5167C245.797 22.4475 245.797 22.2596 245.797 22.0618C245.797 21.864 245.866 21.7355 245.924 21.5377V19.4314H245.797C245.797 19.4314 245.67 19.3028 245.67 18.9765H245.405C245.277 18.9765 245.209 19.1051 245.209 19.3028L245.277 19.4314L245.013 19.9555L245.209 20.2818L244.817 21.063L244.944 21.2608C244.875 21.7157 244.817 21.9135 244.62 21.9135L244.817 22.3684L244.885 22.2991H245.013L244.817 23.7528L245.209 24.1483L244.885 24.2769L245.209 24.7318C245.209 24.7318 245.081 24.8603 244.885 24.8603V25.6415C244.817 25.8393 244.758 26.0964 244.758 26.5513C244.63 26.5513 244.493 26.7491 244.434 27.204L244.503 28.0445V28.3016H244.768C244.768 27.9753 244.836 27.7775 244.895 27.7775L245.022 27.9753C245.022 27.9753 244.895 28.1038 244.895 28.3016L244.964 28.4994L244.895 29.0828L245.022 29.2806H245.287C245.415 29.2806 245.552 29.0828 245.679 28.6972H245.807C245.679 28.5686 245.611 28.3708 245.611 28.1137C245.611 27.9159 245.679 27.7281 245.807 27.5896C245.679 27.5204 245.611 27.3918 245.611 27.0655V26.937C245.611 26.6106 245.738 26.4129 245.934 26.3535L245.924 26.3733ZM245.797 30.3881C245.67 30.2596 245.601 30.131 245.601 29.9333H245.473C245.346 29.9333 245.277 29.8047 245.277 29.5476H244.885L244.954 29.8047C244.885 30.2596 244.954 30.5859 244.758 30.843L244.885 30.9716V31.1001C244.493 31.1001 244.297 31.3572 244.297 31.8813V32.0791H244.032V32.6032C244.424 32.6032 244.62 32.6724 244.62 32.8603L244.297 33.7701V33.8986H244.493C244.817 33.8986 245.081 33.7009 245.277 33.3152H245.601C245.601 33.1174 245.601 33.0581 245.67 32.9889L245.738 32.0791L245.67 31.9506C245.67 31.9506 245.601 31.7528 245.601 31.555C245.601 31.3572 245.67 31.2287 245.728 31.1693L245.66 30.7738C245.66 30.7738 245.787 30.6452 245.787 30.3782L245.797 30.3881ZM244.267 46.398C244.267 46.5266 244.14 46.5958 243.944 46.5958V46.665C244.013 47.1199 244.14 47.3177 244.267 47.3177L244.395 46.8628L244.267 46.7936V46.665L244.591 46.0124L244.395 45.7553H244.267L244.14 46.0816L244.267 46.4079V46.398ZM244.14 50.0173H244.267V49.3053C244.267 49.3053 244.14 49.1768 244.14 48.8504L243.816 49.2361V49.3053L244.14 50.0173ZM244.14 42.0569V41.9283L243.944 41.7998H243.816L243.944 42.0569H244.14ZM243.816 39.6934H244.277L243.954 39.4363L243.826 39.5056V39.7033L243.816 39.6934ZM244.013 36.2917L244.277 36.0939V35.7676H243.816V36.0939L244.013 36.2917ZM234.904 46.1409V46.0124H234.708V46.1409H234.904ZM232.394 31.9604V31.8912H232.198V31.9604H232.394ZM232.07 24.6724H232.198L232.07 24.801H232.002V24.7318L232.07 24.6625V24.6724ZM230.57 24.3461L230.305 24.801L230.433 25.2559L230.237 25.3844V26.0371L230.433 26.2349C230.433 26.0371 230.629 25.9085 230.953 25.9085L231.149 25.5822C231.149 25.1273 231.08 24.801 230.884 24.6032V24.534C230.688 24.534 230.619 24.4648 230.56 24.3362L230.57 24.3461ZM230.766 23.2386C230.766 23.2386 230.639 23.0408 230.639 22.7837C230.639 22.5859 230.707 22.398 230.766 22.3288L230.305 22.131L230.237 22.1904V22.3189L230.433 22.843L230.305 22.9716V23.0408L230.433 23.11V23.2386L230.305 23.6934L230.433 23.9506V23.822C230.433 23.5649 230.56 23.3671 230.756 23.2386H230.766ZM230.639 27.2336V27.1644C230.511 27.1644 230.443 27.0358 230.443 26.8381H230.315L230.119 27.0952L230.58 27.3523L230.649 27.2237L230.639 27.2336ZM223.707 30.7936L223.834 31.2485H223.569V31.7033H223.638L223.962 31.7726V31.7033L224.158 30.9913C223.962 30.9913 223.893 30.9913 223.834 30.5365L223.707 30.665V30.7936ZM246.003 30.5365V30.9221C246.464 30.7244 246.856 31.0507 246.856 31.5748C246.856 32.2868 246.268 32.4252 245.944 32.1582V32.4845L245.875 32.6131H245.807V32.8109C246.13 32.4845 246.856 32.6131 246.856 33.335C246.856 33.4635 246.856 33.5328 246.787 33.5921C246.856 33.6613 246.856 33.7206 246.856 33.8492V33.9184H247.121L247.248 34.3041C247.121 34.3041 247.052 34.4326 247.052 34.6304H246.856V34.3733C246.66 34.9567 246.003 35.1545 245.807 34.6996V34.9567L245.415 34.8282H244.954L244.885 35.2237L244.954 35.6193L244.885 36.0742C245.277 36.0742 245.473 36.2027 245.473 36.4005L245.209 36.9246V37.3201L245.405 37.5773C245.209 37.5773 245.013 37.9036 244.885 38.5562H245.405V38.754L245.209 39.0111V39.2089L245.405 39.6638H245.728L245.797 39.2781V38.8826C245.797 38.6848 245.866 38.5562 245.924 38.3585C245.856 38.1607 245.797 38.0321 245.797 37.8344H245.67V37.5773H245.797V37.3201C245.797 36.4697 246.778 36.4104 246.974 37.1916L247.101 37.1224V37.3795L246.974 37.5773V37.9629H247.101V38.22H247.032L246.905 38.0915C246.836 38.2892 246.777 38.3486 246.777 38.3486C246.846 38.5464 246.974 38.6749 246.974 38.8727V39.7824C246.974 39.911 246.974 39.9802 246.905 40.0396H246.974L247.042 39.9703V40.0989C247.238 40.1681 247.307 40.356 247.307 40.623V41.1471C247.307 41.3449 247.238 41.3449 247.238 41.5426C247.238 41.5426 247.238 41.6119 247.307 41.6712L247.376 41.7404L247.307 41.8096V41.8789C247.307 41.8789 247.238 42.0074 247.238 42.0766H247.366L247.493 42.1459V42.2744L247.366 42.7985L247.493 42.9271V43.0556C247.425 43.382 247.366 43.7083 247.297 43.8962V44.5488C247.297 44.6774 247.229 44.8059 247.17 45.0037C247.238 45.0729 247.297 45.2015 247.297 45.3993V45.9827C247.297 45.9827 247.425 46.2398 247.493 46.5661L247.297 46.6947V47.5352L247.425 47.6638H247.493V47.9901C247.493 48.1879 247.425 48.3758 247.297 48.5142V48.712C247.493 48.8405 247.621 49.0383 247.621 49.2361C247.621 49.3646 247.552 49.4932 247.493 49.691C247.562 49.7602 247.621 49.8887 247.621 50.0865C247.621 50.3436 247.493 50.5414 247.229 50.6106C247.229 50.6799 247.297 50.6799 247.297 50.8677L247.366 51.1248L247.238 51.1941C247.238 51.1941 247.111 51.3918 247.042 51.4512C247.111 51.4512 247.17 51.5204 247.238 51.5797H247.366L247.493 51.6489V51.7182C247.493 51.9159 247.425 52.1137 247.229 52.1731L247.356 52.3016V52.4302C247.356 52.4302 247.229 52.6279 247.032 52.6873V52.8158L247.229 53.1421L247.101 53.2114V53.6069H247.032V53.6761C247.032 53.6761 247.101 53.8739 247.101 54.0717V54.4672L247.493 54.9913L247.366 55.0606L247.493 55.1891V55.3177L247.366 55.644L247.493 55.7726V55.8418L247.366 55.9703L247.493 56.4944V56.8801L247.366 56.9493L247.493 57.0779V57.7305L247.562 58.6403L247.493 59.026C247.032 59.3523 246.777 59.6094 246.317 60.0643C246.248 59.9951 246.121 59.8665 246.052 59.6786C245.856 60.2621 245.003 60.3906 244.944 59.6786C244.748 60.1335 244.091 60.2027 243.836 59.7478V59.8171C243.64 60.4005 243.052 60.5983 242.728 60.1434H242.601V60.3412L242.532 60.4104L242.071 61.1916L241.552 60.9345C241.552 61.1323 241.228 61.1916 240.64 61.2608C240.64 61.4586 240.571 61.5179 240.444 61.5179H240.051L239.659 61.6465L238.483 61.5773L238.414 61.6465V61.775C237.953 61.775 237.63 61.5179 237.149 61.2509H237.081L236.365 61.3795C236.365 61.1817 235.973 60.9246 235.257 60.529L234.541 59.4215L234.669 59.0952C234.472 59.026 234.276 58.8381 234.08 58.5117V58.3832L234.276 58.1854C234.276 58.1854 234.08 57.7899 234.012 57.2064L234.08 57.0779L234.012 56.9493H233.884L234.208 55.4957L234.08 55.3671V55.2979C234.276 54.7145 234.345 54.131 234.541 53.6465L234.345 52.9345V52.4104C234.414 52.0841 234.472 51.9555 234.541 51.9555L234.472 51.5006V49.6613C234.472 49.4635 234.669 49.4042 235.129 49.335V49.0779C234.865 49.0779 234.669 48.8208 234.541 48.2967L234.669 47.8418L234.541 47.3869L234.669 45.6069V45.4784L234.541 45.0235C234.669 45.0235 234.737 44.7664 234.737 44.2423C234.933 44.2423 235.002 44.1137 235.002 43.7874H235.129L234.737 43.204V41.8195L234.933 41.691L234.806 40.979V40.8504L235.129 40.5241L234.806 39.9407L235.002 39.6143L234.806 39.1595L235.129 38.7046V38.576L234.933 38.3782L235.129 38.0519V37.8541L234.933 37.5278V37.4586L235.002 37.33L234.933 37.2608V36.5488L235.002 36.0247H234.933V35.8962L235.002 35.8269V35.6984L234.933 35.5006L235.325 34.047L235.257 33.5921C235.384 33.5229 235.453 33.3943 235.453 33.068C235.453 32.7417 235.325 32.5439 235.061 32.4845C235.257 32.2868 235.325 32.0297 235.325 31.7033C235.325 31.0507 235.257 30.665 235.061 30.4475L234.796 30.7046C234.727 30.9023 234.669 30.9617 234.669 30.9617C234.472 31.3473 234.345 31.6143 234.276 31.6737C234.149 31.6044 234.012 31.6044 233.884 31.6737V31.6045C233.688 31.6045 233.561 31.8022 233.365 32.1879V32.5142C233.041 32.2571 232.649 32.2571 232.453 32.712C232.188 32.7812 232.06 33.0383 231.992 33.4932L232.06 33.9481V34.1459C231.992 34.7985 231.796 35.1248 231.345 35.1248L231.737 35.4512V35.6489C231.737 35.9061 231.806 36.1038 231.933 36.2324L231.737 36.7565L231.864 37.152V37.2213L231.6 37.2905L231.668 37.5476C231.668 37.5476 231.6 37.7454 231.6 37.9332V38.0025C231.6 38.2002 231.472 38.2596 231.207 38.2596V38.5167H231.08C231.08 38.5167 231.011 38.3881 231.011 38.1211H230.747L230.551 38.4475L230.678 38.5167V38.6452C230.551 38.9716 230.413 39.1693 230.217 39.1693L230.149 39.1001H230.08C229.756 39.1001 229.168 39.4957 228.295 40.356C227.972 40.356 227.707 40.6131 227.442 41.068H227.246C226.982 41.068 226.462 40.8109 225.981 40.4845C225.981 41.0087 225.785 41.335 225.393 41.5229L225.128 41.3943V41.3251L225.197 41.2559V41.1273C224.874 41.1273 224.736 40.9988 224.736 40.801C224.736 40.4747 224.805 40.3461 224.932 40.3461L224.805 39.8912L224.736 40.0198H224.609V39.8912H224.481C224.481 40.089 224.481 40.2176 224.413 40.2176H224.285C224.285 40.2176 224.158 40.089 224.158 40.0198C223.697 38.9122 223.373 37.7849 223.305 36.5488H223.373V36.351L223.305 36.2818C223.305 36.0841 223.373 36.0247 223.373 35.8269C223.373 35.6292 223.373 35.5006 223.305 35.4413L223.373 35.115L223.305 34.6601L223.501 34.3337V33.6811L223.373 33.4833V33.3548C223.373 33.157 223.501 33.0284 223.569 32.7713L223.177 33.0976H223.109L222.785 32.9691C222.462 33.8195 222.265 34.225 222.069 34.225L221.873 34.0272L222.001 33.7009L221.873 33.6316L221.805 33.7009H221.609L221.481 33.6316H221.412C221.412 33.7602 221.216 33.958 220.824 34.2151C220.755 34.5414 220.628 34.7392 220.363 34.8677H220.167V34.7392L219.902 34.8084V34.8776L220.167 35.204L219.844 35.4017H219.383V35.9258C219.187 35.9951 218.991 36.3807 218.795 37.1817L218.991 37.5773C218.863 38.3585 215.216 39.7429 214.824 40.1384C214.824 40.4648 214.627 40.7219 214.235 40.8504C214.235 41.0482 213.451 41.7602 211.921 43.0161C211.921 43.3424 211.333 43.7973 210.196 44.4005L207.558 45.1125H206.774C205.921 45.0433 204.852 44.529 203.744 43.5303C203.548 43.0754 202.96 42.2744 201.96 41.2954C201.175 40.0396 200.695 39.3869 200.695 38.8035C200.371 38.8035 199.979 38.0915 199.43 36.5686C197.773 33.4932 197.057 31.7726 197.057 31.0606C197.057 30.665 196.93 30.2794 196.596 29.953L196.4 29.3696C196.528 29.3696 196.596 29.241 196.665 28.9147C196.93 28.9147 197.057 28.7862 197.057 28.529H197.714C198.175 28.529 198.43 28.3313 198.43 27.8764L198.891 27.7478L199.871 28.1434L200.195 28.0742C200.322 28.4005 200.46 28.529 200.587 28.529L201.371 28.0742C201.44 28.4005 201.567 28.5983 201.636 28.5983H201.764L202.087 28.3412H202.479L202.803 28.5983V28.6675L202.538 28.9246L203.058 29.1224L203.185 29.0532H203.313C203.774 29.0532 204.097 29.4388 204.225 30.309C204.685 30.6354 205.078 30.8331 205.401 30.8925C205.529 31.1496 205.862 31.4759 206.382 31.8714L206.313 31.9407V32.0099C206.313 32.0099 206.97 32.5933 207.97 33.7899L209.431 33.9184C210.608 33.9184 211.804 33.3943 212.921 32.267C214.51 31.4264 217.02 30.8826 216.892 30.6156C217.02 30.6156 219.138 29.6366 219.461 29.1619L220.05 29.0334C220.05 28.8356 220.118 28.707 220.246 28.707C220.246 28.5093 220.569 28.0544 221.295 27.2534C221.295 27.1248 221.559 26.7293 222.011 25.9975L221.942 25.6712L222.011 25.5426H222.138L222.334 25.7404L222.462 25.6712V25.0878L222.589 24.89L223.246 25.2163L223.118 25.3449V25.4141L223.638 26.2546H223.569C223.638 26.8381 223.766 27.1644 223.834 27.2336C223.834 25.7206 223.962 23.7627 223.766 21.1817V20.1434L223.834 19.6193L223.638 19.0952L223.834 18.6996L223.373 16.1384V15.6143L222.785 14.576L223.05 14.3782C222.785 14.3782 222.462 13.9234 222.001 12.9246H221.873C221.873 12.2126 222.197 11.5995 222.785 11.0853C222.785 10.9567 222.981 10.759 223.373 10.4326L223.442 10.5612L223.569 10.4326H224.354L224.481 10.5612C224.481 10.3634 224.55 10.1755 224.746 10.0371H225.07C225.334 10.0371 225.658 10.0371 225.923 9.96786C226.187 10.0371 226.383 10.0964 226.707 10.0964C226.707 10.3535 227.423 10.6205 228.825 10.8084C229.678 11.2633 230.158 11.6588 230.413 11.9159L230.286 11.9852C231.551 13.3696 232.07 14.2892 232.335 14.8035V15.0606L231.874 15.3869C231.943 15.5847 232.002 15.7132 232.002 15.8418V16.1681C232.002 16.3659 231.933 16.5637 231.874 16.623V16.6922C231.874 16.6922 232.002 16.89 232.002 17.0779V17.602C232.002 17.7998 231.933 17.9975 231.874 18.0569C231.943 18.2546 232.002 18.3832 232.002 18.5117C232.002 18.7095 232.002 18.7689 231.933 18.8381C232.002 18.9073 232.002 18.9666 232.002 19.0358C232.002 19.2336 232.002 19.293 231.933 19.3622L232.06 19.2336H232.188V19.4314L232.06 19.56H231.992V19.6885C231.992 19.9456 231.864 20.0742 231.796 20.2719C231.796 20.2719 231.815 20.3115 231.864 20.4005C231.864 20.5983 231.796 20.7862 231.6 20.9839V21.1125C231.6 21.3103 231.668 21.3696 231.668 21.4388C231.668 21.6366 231.6 21.8344 231.472 21.9629C231.737 22.0321 231.864 22.22 231.864 22.5464C231.864 22.8727 231.737 23.0705 231.541 23.1298C231.541 23.199 231.541 23.2583 231.609 23.2583C231.286 23.5155 231.286 23.9703 231.541 24.2373L231.609 24.3659V25.0779L231.541 25.2064C231.737 25.1372 231.806 25.0779 231.864 25.0779C231.796 24.9493 231.864 24.8208 231.933 24.7515L232.521 24.356L232.649 24.2868L233.698 23.5748C233.698 23.377 233.502 23.3177 234.286 22.8628C234.551 22.7936 234.678 22.2794 234.874 21.6959L234.678 21.4981L234.747 20.974V20.3906L234.678 19.4116L234.747 18.6996L234.678 18.6304L234.747 18.1755V17.8492L234.874 15.9407L234.747 15.8714V15.7429L234.943 13.9629L234.874 13.3103V11.5995L234.943 11.204L234.874 11.1347V11.0062L234.943 10.7491C234.678 10.0371 234.678 9.4932 234.678 9.03832L234.61 9.10754H234.541C233.757 8.65266 234.08 8.58344 234.08 8.12855C233.757 7.93078 233.296 7.60445 232.747 7.02101C232.286 7.02101 232.031 6.49691 231.894 5.50803L231.305 4.79604C231.305 4.53894 231.57 4.27194 232.159 3.9555C232.286 3.62917 232.678 3.17429 233.423 2.43263C233.423 2.04697 235.149 1.32509 238.502 0.326329L240.483 0H241.199C241.591 0.197775 242.052 0.385661 242.532 0.524104L242.463 0.652658V0.721879C243.248 1.43387 243.924 1.70087 244.385 1.70087C244.905 1.95797 245.493 2.35352 245.974 3.15451L246.434 3.08529C246.699 3.15451 247.287 3.54017 248.16 4.25216C247.964 4.57849 248.091 4.90482 248.552 5.09271C248.817 5.29048 248.876 5.67614 249.072 6.00247C249.14 6.20025 249.14 6.38813 249.199 6.58591C249.003 6.71446 248.876 6.91224 248.876 7.16934C249.072 7.88133 248.415 8.8801 248.611 9.33498C248.287 9.78986 247.827 10.047 247.758 10.5019C247.689 10.5019 247.562 10.5711 247.493 10.6304L247.758 11.6094V11.8072C247.758 12.2621 247.631 12.9147 247.366 13.9135H247.297V14.042C247.297 14.2398 247.229 14.3684 247.032 14.5661L247.229 14.4376L247.493 14.7639L247.101 14.9617L246.905 15.3572C246.905 15.3572 246.974 15.4858 246.974 15.555V15.8121C247.042 15.4858 247.101 15.3572 247.238 15.3572H247.366V15.555L247.101 15.8121H246.974C246.974 15.8121 246.974 15.8813 246.905 15.9407C246.974 16.0099 246.974 16.0692 246.974 16.267C246.974 16.3956 246.974 16.4648 246.905 16.5241L247.032 16.6527H247.229V16.7812H247.032C247.032 16.7812 247.101 16.9098 247.101 16.979V17.1768C247.101 17.3053 247.032 17.4339 246.974 17.6316C247.042 17.7009 247.101 17.8294 247.101 18.0173C247.101 18.0865 247.032 18.1459 247.032 18.2151C247.032 18.2843 247.101 18.3436 247.101 18.4129C247.101 18.7392 247.032 18.8677 246.905 18.937C247.032 19.0655 247.101 19.2633 247.101 19.4611C247.101 19.5896 247.101 19.6588 247.032 19.7182C247.101 19.7874 247.101 19.8467 247.101 19.9753C247.101 20.1038 247.032 20.2324 246.974 20.4302C247.042 20.4994 247.101 20.6279 247.101 20.8158C247.101 21.0037 247.032 21.2114 246.905 21.3399C246.974 21.4091 246.974 21.5377 246.974 21.7355C246.974 21.864 246.905 21.9926 246.846 22.1904C246.915 22.2596 246.915 22.3881 246.974 22.4475V22.2497L247.17 22.0519V22.576L247.042 22.6452L246.974 22.5167V22.5859C246.974 22.7145 246.905 22.843 246.846 23.0408C246.846 23.0408 246.866 23.0606 246.915 23.11L246.983 23.0408L247.052 23.1693V23.2979L246.983 23.3671V23.4957C246.983 23.7528 246.856 23.8912 246.787 24.0791C246.856 24.1483 246.856 24.2077 246.856 24.3362C246.856 24.534 246.787 24.5933 246.787 24.6625C246.915 24.6625 246.983 24.5933 246.983 24.4648H247.179C247.179 24.6625 247.248 24.6625 247.248 24.8603H246.728V24.7318L246.601 24.8603C246.797 24.9295 246.866 25.1174 246.866 25.3844C246.866 25.7108 246.797 25.8393 246.67 25.9085H246.738C246.738 25.9085 246.866 25.9778 246.866 26.0371V26.7491C246.866 27.0754 246.797 27.204 246.67 27.2732C246.738 27.471 246.797 27.5995 246.866 27.7281V27.7973C246.866 28.3214 246.405 28.5785 246.081 28.5093L245.954 28.7664C246.415 28.5686 246.866 28.8356 246.866 29.419C246.866 29.4883 246.934 29.5476 246.934 29.6168H246.866C246.797 30.0717 246.346 30.2002 246.013 30.1409L245.944 30.576L246.003 30.5365ZM209.98 14.576L211.088 14.6452H211.412L215.579 15.4265C217.755 16.4054 218.804 17.2658 218.804 17.9876C218.873 17.9876 218.932 18.314 219.128 18.8974L218.804 19.1545V19.3523C218.804 21.0037 218.285 21.7849 217.275 21.7849C217.275 22.1112 217.01 22.4376 216.559 22.7639C215.706 24.0198 214.706 24.6724 213.598 24.6724L211.284 25.4536L211.157 25.3844H211.088C210.764 25.5822 209.558 25.6415 207.254 25.8393L206.931 25.7108C206.146 25.7108 205.342 25.9085 204.558 26.2942C203.45 26.7491 202.773 27.0062 202.44 27.0062L201.724 27.1347H201.528C201.264 27.1347 201.009 27.0655 200.548 26.8776H200.479L200.087 27.0062H199.626C199.038 27.0062 198.361 26.4227 197.577 25.2262L196.312 23.0606C196.116 22.5365 196.047 21.8937 195.851 20.6279C195.655 20.6279 195.528 19.9159 195.39 18.5216C195.459 18.1261 195.979 17.869 197.116 17.8096C197.116 17.5525 197.244 17.4141 197.44 17.4141L198.293 17.7404L198.881 17.4833L199.342 17.6119L199.861 17.4833L200.45 17.6119C201.715 17.157 202.822 16.5043 204.087 15.7726L205.195 15.1199C205.519 15.1199 205.852 14.9221 206.244 14.4672L209.205 14.5958L209.921 14.5266L209.96 14.5661L209.98 14.576Z" fill="var(--fill-0, white)"/>
<path id="Vector_5" d="M300.39 41.6514H300.263V41.5229H300.39V41.6514ZM300.459 42.047C300.39 42.3041 300.263 42.4326 300.194 42.4326H299.675V42.1755C299.871 42.1755 300.135 42.1063 300.39 41.8492L300.459 41.9777V42.047ZM299.282 44.2818H298.89L298.694 44.0247H299.282L299.41 44.1533L299.282 44.2818ZM297.164 52.4994V51.5896H297.037L296.772 51.8467H296.508L296.772 52.4994H297.164ZM289.978 53.5377V53.2114H289.781V53.5377H289.978ZM284.83 53.0828V53.152H285.81V53.0235L285.35 52.9543C285.35 52.9543 285.154 53.0828 284.83 53.0828ZM282.193 53.9926V53.7948L281.732 53.6663L281.663 53.9926H282.183H282.193ZM299.145 4.10383L301.322 4.75649C302.037 4.75649 302.91 5.28059 303.891 6.33869C304.802 6.73424 305.548 7.31768 306.136 8.11867L306.459 8.89988L306.332 9.75031L307.244 10.5315V10.8578C307.244 11.0556 306.92 11.115 306.263 11.1842L306.067 11.5698L306.587 12.2225C306.518 12.5488 306.263 12.6774 305.803 12.6774L305.675 12.6082C305.352 12.6082 305.087 12.8059 304.822 13.1323C304.891 13.4586 305.018 13.7157 305.214 13.9135C304.891 14.3684 304.753 14.8232 304.753 15.2386C304.293 15.2386 303.773 15.3078 303.096 15.4957L302.832 15.3671H302.704L302.116 15.6242C302.116 15.822 302.047 15.8813 301.988 15.8813L301.861 15.8121V15.6836C301.077 15.7528 300.684 15.9407 300.684 16.267L299.635 16.5933L299.116 16.5241C299.116 16.8504 298.723 17.0482 297.939 17.0482C297.939 17.1174 297.478 17.246 296.478 17.5031L295.958 17.246V17.3745C295.958 17.7009 286.526 19.4116 284.212 19.7379C283.889 19.9951 283.555 20.7763 283.232 22.1014C282.84 23.555 282.516 24.3362 282.183 24.534L282.447 25.1867L281.987 25.5822H282.183V25.78L281.918 26.4326L281.987 26.9567H281.918L281.722 27.4808L281.526 28.1928L281.457 28.2621H281.33L281.457 28.3906L281.065 29.3004V29.3696C281.389 29.3696 281.526 29.4981 281.526 29.8245L281.594 29.953H282.055L285.477 28.1731C285.869 27.8467 286.585 27.5896 287.654 27.2633C288.046 27.0655 288.311 26.7392 288.507 26.4227V26.0964L289.899 24.8405H290.36L290.625 25.0383H290.889C291.605 24.9098 292.066 24.712 292.282 24.5142L292.546 24.712L294.007 24.2571L294.076 24.3263L294.537 24.2571H294.86V23.8022L295.184 23.3473L295.576 23.6737L295.645 23.6045H296.164L297.214 24.1879L297.41 24.0593H297.478C297.674 24.3857 298.527 24.5834 299.988 24.712C300.253 24.9098 300.704 25.0977 301.773 25.3646L302.949 25.9481C303.93 26.403 304.606 26.7985 304.802 27.115C304.999 27.115 305.459 27.6984 306.136 28.8257L306.205 28.8949V28.9642L305.94 29.2905L306.136 29.3597H306.205L306.469 29.2905V29.5476C306.469 29.6761 306.273 29.7454 305.95 29.7454L305.822 30.0717L305.891 30.1409H305.959L306.616 30.0717H306.685V30.1409L306.489 30.4672L306.165 30.2101H305.969V30.3387L305.901 31.2485C305.901 31.5748 306.028 31.7726 306.361 31.9604V32.3461C306.165 32.6724 305.508 33.0581 304.381 33.4536C304.381 33.5822 303.92 34.0371 302.989 34.8381C302.92 35.3622 302.724 35.6193 302.4 35.6193C302.4 35.8171 302.273 35.8764 301.939 35.8764C301.812 36.4598 301.675 36.7268 301.479 36.7268V37.3103C301.155 37.6366 301.018 37.8937 301.018 38.22L300.557 38.4178V38.6749L300.753 39.0012L300.488 39.2583L300.557 39.7132C300.429 39.7132 300.361 39.911 300.361 40.2373C300.096 40.2373 299.704 40.6329 299.253 41.4932V41.8195C299.449 41.8195 299.518 41.8888 299.518 42.0173L299.39 42.4722L299.518 42.403H299.841L300.037 42.5315L299.91 42.6601L299.841 42.5315H299.714L298.606 43.6984L298.733 43.8269L298.606 44.0841C298.733 44.0841 298.871 44.2126 298.998 44.5389L300.39 44.1434L300.655 44.2719L302.312 43.7478H302.773C302.773 43.5501 302.841 43.4215 302.9 43.4215H302.969C303.165 43.6193 303.557 43.7478 304.018 43.7478L304.41 43.5501L304.734 43.6786L304.861 43.293L305.381 43.4215H305.577V43.8171H305.901L307.165 42.7095C307.361 42.7787 307.558 42.9073 307.626 43.1051L307.695 43.0358H308.548L308.617 43.1051L309.332 42.848C310.381 43.0457 310.921 43.3721 310.921 43.6885H311.117L312.029 43.56C312.029 43.7577 312.489 43.8171 313.421 43.8171C313.744 44.0742 313.882 44.3412 313.882 44.5983H313.95L314.274 44.4005C315.607 44.796 316.254 44.9839 316.254 45.0532V45.1817H316.911C317.039 45.1817 317.107 45.3103 317.176 45.6366C317.441 45.6366 317.696 45.8344 317.892 46.22C318.215 46.22 319 46.932 320.333 48.3857L320.598 49.2954V49.3646C320.598 49.691 320.529 49.8887 320.402 49.8887L320.529 50.2151V51.471C320.265 51.9258 320.01 52.1829 319.745 52.1829L318.48 52.8356L318.088 52.707C317.961 52.7763 317.372 52.8356 316.235 52.9048C316.235 53.1619 315.911 53.4883 315.254 53.8146C315.186 54.2695 314.931 54.4672 314.146 54.4672H313.95L312.029 54.5365C312.029 54.5365 311.117 54.2794 309.195 53.8838L305.842 52.7763H305.577L305.381 52.974C304.92 52.974 304.793 52.974 304.528 52.7763H303.812C303.812 52.7763 303.685 52.8455 303.685 52.974L303.616 53.1026H303.42C303.028 53.1026 302.832 52.9048 302.832 52.4499L302.371 52.3807L301.91 52.5785L301.194 52.4499L300.675 52.7763L300.086 52.1928H299.89C299.89 52.1928 299.763 52.4499 299.625 52.9048L299.429 53.1026C299.233 53.1026 299.165 52.974 299.165 52.7763H299.037C298.184 53.1026 297.508 53.3004 296.723 53.3004H296.4L295.684 52.9048C295.684 53.0334 295.556 53.1026 295.292 53.1026V53.1718L295.419 53.3004L295.292 53.4289H295.223C295.223 53.4289 295.096 53.3004 295.096 52.974C294.703 53.1718 294.38 53.3004 294.184 53.3004H293.919L293.723 53.1718L294.047 52.9147L293.527 52.4598L293.262 52.5884V53.1125C293.194 53.3103 292.939 53.4388 292.605 53.4388H292.478V53.3103C292.478 53.3103 292.674 53.1817 293.066 53.1125V52.9147C292.801 52.9147 292.674 52.8455 292.605 52.7169L292.086 52.5884L291.889 52.8455V52.9147L292.086 53.1718L291.889 53.3004H291.693V52.9048C291.301 52.9048 290.978 53.1026 290.713 53.5575L289.86 53.6267L288.468 53.5575L288.664 53.4289V53.3004L288.007 53.1718L287.487 53.8838L287.026 53.8146L284.781 54.4672L284.712 54.0124C284.516 54.0124 284.124 54.2695 283.663 54.7244H283.595L283.526 54.6551L283.006 54.8529L282.879 54.7244V54.6551L282.81 54.7244H282.683V54.5266L282.614 54.4574C281.957 54.4574 281.634 54.5266 281.634 54.6551V54.7244L281.702 54.8529V54.9815L281.31 55.1792L280.918 55.11L280.202 55.6341H280.075L279.751 55.4363H279.555C279.359 55.5649 279.035 55.6341 278.575 55.6341C278.575 55.8319 277.986 56.1582 276.79 56.6131C275.525 56.8702 274.613 57.2658 274.153 57.5229C273.829 57.5229 272.819 57.9777 271.192 58.848C270.142 59.1051 269.466 59.5006 269.211 59.6984H267.623L267.426 59.6292L266.838 59.8269C266.838 59.6984 266.573 59.6292 266.054 59.6292L265.926 59.5006H265.269C264.809 59.6984 264.358 59.8269 263.808 59.8269H263.612L262.828 59.6984L262.504 59.8269C260.387 59.0457 259.347 58.3733 259.347 57.7899L258.563 56.9394C258.298 55.9011 257.847 55.4265 257.582 55.4265L257.386 55.1693L257.455 54.4574L256.798 54.0025L257.19 53.7454L256.798 53.419C256.867 52.4401 257.063 51.9654 257.318 51.9654H257.386L258.298 52.0939C258.69 51.8368 258.886 51.6391 258.886 51.5698L259.347 51.6984L264.358 50.848L266.671 50.136L267.064 50.2052L267.652 50.136L268.172 50.2052L268.495 50.136L268.623 50.3337H268.75C269.603 50.136 270.084 49.9382 270.084 49.8789C270.348 49.2954 270.74 49.0284 271.348 49.0284C273.858 48.3164 275.515 47.9209 276.231 47.9209L276.427 47.8517V47.7231L276.231 47.6539H276.555L276.819 47.7231H277.143C279.388 47.2682 280.496 46.7441 280.496 46.0717C280.692 46.0717 280.888 45.9431 280.957 45.419C281.418 45.419 281.673 45.2213 281.741 44.8356C282.006 44.8356 282.33 44.3807 282.722 43.5105C282.987 43.5105 283.899 41.4734 285.683 37.8047C285.752 37.3498 285.948 37.0927 286.144 36.8949V36.8257L285.752 36.1731L285.879 35.8467C285.683 35.8467 285.614 35.9753 285.614 36.3016C284.634 36.4994 283.634 36.8257 282.389 37.2806C281.928 37.2806 280.928 37.6069 279.555 38.4475V38.7046L280.016 38.576C280.016 39.6143 280.016 39.9604 276.986 39.7429L276.663 39.8714C275.555 39.6143 274.682 39.4166 274.349 39.1595C273.829 38.9023 273.368 37.6366 272.623 35.7577L272.692 35.3721L272.623 34.9172L272.888 34.5216L272.564 34.1953L272.692 33.9975L272.623 33.5426L272.888 32.9592L272.564 32.6329C272.76 32.6329 272.956 31.7231 273.152 30.3288C273.672 29.6168 273.937 29.1619 273.937 28.8059C274.653 26.5117 275.594 23.6242 277.094 20.0049V19.9357C277.094 19.6786 276.506 19.4808 275.241 19.2831L272.603 17.8986C272.28 17.8294 272.084 17.7009 272.084 17.5031L271.564 17.6316H271.495C271.172 17.4339 270.976 17.1768 270.976 16.8504C270.848 16.8504 270.515 16.3956 269.995 15.3968V15.3276H270.064C269.799 14.22 269.476 13.3498 268.731 12.8949L268.534 12.0445L268.603 11.6588L268.534 11.3325L268.927 11.1347L268.995 11.2633H269.064L269.525 11.0655L269.593 11.1347C271.515 10.937 272.623 10.6799 273.143 10.4821L273.604 10.6799H273.8C274.388 10.6799 276.368 10.0272 279.79 8.7021C279.986 8.63288 280.575 8.37577 282.104 7.92089C282.104 7.72311 282.428 7.66378 283.153 7.59456C283.153 7.26823 292.654 5.23115 294.576 4.51916C295.36 3.99506 296.106 3.73795 296.821 3.73795L298.998 3.99506L299.39 3.8665L299.214 4.06428L299.145 4.10383Z" fill="var(--fill-0, white)"/>
</g>
</svg>
