<svg preserveAspectRatio="none" width="100%" height="100%" overflow="visible" style="display: block;" viewBox="0 0 391.351 813.765" fill="none" xmlns="http://www.w3.org/2000/svg">
<path id="Vector" d="M335.976 0H55.3744C24.8005 0 0 24.7022 0 55.1549V758.61C0 789.063 24.8005 813.765 55.3744 813.765H335.976C366.55 813.765 391.351 789.063 391.351 758.61V55.1549C391.351 24.7022 366.55 0 335.976 0ZM385.978 756.68C385.978 785.243 362.715 808.413 334.038 808.413H57.313C28.6354 808.413 5.37309 785.243 5.37309 756.68V57.0857C5.37309 28.5219 28.6354 5.35179 57.313 5.35179H334.017C362.694 5.35179 385.956 28.5219 385.956 57.0857V756.68H385.978Z" fill="var(--fill-0, black)"/>
</svg>
