<svg preserveAspectRatio="none" width="100%" height="100%" overflow="visible" style="display: block;" viewBox="0 0 106.974 106.585" fill="none" xmlns="http://www.w3.org/2000/svg">
<g id="Group">
<g id="Group_2">
<path id="Vector" d="M50.17 24.2719C48.4594 24.5213 47.5416 25.0616 46.9575 25.7058C45.8727 26.9319 45.3303 28.2618 45.08 29.6126C44.8505 30.8387 44.7462 31.9816 44.6002 33.0622C44.4542 34.122 44.2247 35.1195 43.8283 35.8676C43.4737 36.491 43.2025 36.9274 42.7645 37.4262C42.3264 37.9249 41.7214 38.5068 40.9704 39.0678C39.5728 40.19 37.9665 41.1043 36.235 41.52C34.7122 41.894 33.1268 42.2473 31.5414 42.372C31.5414 40.9589 31.5831 39.5666 31.5831 38.1535C31.5831 37.0937 31.5622 36.0131 31.7083 34.9532C31.8752 33.8726 31.9169 32.7713 32.1881 31.6699C32.2298 31.5244 32.2507 31.379 32.2715 31.2543C32.3132 31.2335 32.3758 31.1919 32.4175 31.1711C33.2728 30.5893 33.544 30.049 33.5649 29.5502C33.5857 28.6359 33.0851 27.8047 33.1059 26.9111C33.1268 26.163 32.9391 25.4564 32.7722 24.8122C32.6887 24.5213 32.6261 24.1888 32.5636 24.1472C32.6053 24.1472 32.4801 24.1472 32.3967 24.1265H32.3341C32.2715 24.1265 32.8139 24.1888 32.5844 24.168L32.6053 24.0226C32.6053 23.9394 32.647 23.8563 32.647 23.7732C32.6679 23.6069 32.7096 23.4407 32.7096 23.2745C32.7513 22.942 32.7722 22.6095 32.7513 22.2562C32.7513 21.2172 32.0838 20.3444 31.4371 19.5547C31.2911 19.3885 31.1868 19.2845 31.0407 19.1391L30.7904 18.8897L30.6027 18.6819L30.4358 18.5157L30.2897 18.391C30.2897 18.391 30.0811 18.2247 29.9768 18.1624C29.8725 18.1 29.7265 18.0169 29.6639 17.9961L29.5596 17.9546L29.3302 17.8715C29.1633 17.8299 29.0381 17.7883 28.8504 17.7676C28.4957 17.7052 28.1411 17.7052 27.7865 17.7676C27.0981 17.8922 26.5557 18.2039 26.2219 18.4533C25.4292 19.0975 25.2206 19.6378 24.9494 20.1158C24.7199 20.5937 24.5531 21.0301 24.3027 21.4665C24.2819 21.5081 24.2819 21.4873 24.2401 21.612C24.1984 21.7159 24.1776 21.8198 24.1567 21.9237C24.115 22.1315 24.0733 22.3809 24.0733 22.5263C24.0733 22.7342 24.0733 22.9212 24.115 23.129C24.1776 23.4199 24.261 23.7108 24.3653 23.8979C24.5739 24.3551 24.8242 24.7083 25.012 25.0824C25.5335 26.0591 26.0759 26.9526 26.7226 27.8047L26.8686 27.9917C26.8269 28.1787 26.7851 28.3865 26.8686 28.5735C26.9729 28.8853 26.8269 29.2385 26.7852 29.571C26.7434 29.9866 26.9729 30.3607 27.0772 30.7555C27.1606 31.0049 27.2232 31.275 27.3067 31.5452C27.2024 32.0024 27.1189 32.4596 27.0355 32.9167C26.7851 34.6208 26.7643 36.4079 26.806 38.1743C26.8269 38.9432 26.2428 39.6497 26.3888 40.4186C26.4305 40.668 26.4931 40.9173 26.4514 41.1459C26.4305 41.3537 26.3888 41.5407 26.3471 41.7486C25.4918 41.4784 24.6782 41.1043 24.0107 40.564C23.364 40.0237 22.7173 39.525 22.1124 38.9639C21.5283 38.4028 20.9442 37.7171 20.4852 36.9482C19.2962 34.8701 18.5869 32.3349 18.1697 29.7581C17.9819 28.6151 17.815 27.4514 17.8568 26.2669C17.9193 25.0616 17.8985 23.8355 18.1488 22.6095C18.42 21.2379 18.0654 19.8041 18.8789 18.4741C19.025 18.2247 18.7538 17.9338 18.0237 17.8091C17.3978 17.7052 17.0223 17.8922 16.8346 18.0585C16.2714 18.5157 15.5829 18.9521 14.8737 19.3885C14.5191 19.617 14.2687 19.8456 14.1227 20.1158C13.3717 21.4457 13.1631 22.8796 13.0379 24.3343C12.8711 26.3916 13.0379 28.532 13.4552 30.6516C13.622 31.566 13.2257 32.5635 13.622 33.4778C13.7472 33.7687 13.8724 34.0597 13.9141 34.3506C14.1227 35.5974 14.2687 36.9482 14.8528 38.1535C15.3743 39.2133 15.8333 40.3355 16.48 41.4368C17.1058 42.5382 17.9611 43.6188 19.0458 44.3669C19.1084 44.4085 19.1919 44.4708 19.2336 44.554C19.7551 45.3852 20.5061 45.9878 21.3196 46.4034C22.1332 46.8398 22.9676 47.0892 23.7812 47.3594C24.3862 47.5672 25.0328 47.7542 25.6587 47.8997C25.6169 48.5023 25.5961 49.1257 25.6795 49.7491C25.6795 49.8115 25.6795 49.8946 25.6795 49.957C25.0746 51.4324 25.5752 52.9078 25.8881 54.2794C26.0342 54.9028 26.201 55.5054 26.3679 56.1081C25.7421 56.3782 25.2832 56.8146 24.8868 57.2718C24.5113 57.729 24.1776 58.2069 23.8855 58.7057C23.6143 59.2252 23.3849 59.7655 23.1554 60.285C22.9676 60.7422 22.3001 60.8876 22.2167 61.4279C22.2167 61.5942 22.1749 61.7604 22.0915 61.8851C21.716 62.4254 21.2362 62.9034 21.0276 63.5268C20.8398 64.0671 20.5478 64.5658 20.2349 65.0438C19.9428 65.5425 19.6299 66.0205 19.5465 66.6023C19.5465 66.6439 19.5465 66.6855 19.4839 66.7062C18.6078 67.2465 18.6286 68.1401 18.4826 68.9298C18.2323 70.0727 17.9819 71.1949 17.9402 72.3586C17.9402 72.608 17.3352 72.7119 17.523 73.0028C17.9611 73.7094 17.523 74.1873 17.5647 74.79C17.669 76.0576 17.0223 77.1798 16.8972 78.385C16.8763 78.6136 16.9806 78.8422 16.8137 79.0292C16.5634 79.2994 16.6051 79.5903 16.772 79.9228C16.8555 80.0475 16.772 80.1722 16.7512 80.2969C16.626 80.7956 16.3757 81.2943 16.3965 81.8139C16.4174 82.4165 15.9793 82.9776 16.0002 83.5802C16.0002 84.0582 15.7916 84.4946 15.6664 84.9518C15.5204 85.5128 15.6247 86.0947 15.6664 86.6766C15.6664 87.2376 15.7081 87.7779 15.729 88.4014C15.3952 88.5468 16.0836 88.817 16.1671 89.0664C16.2296 89.2949 16.7929 89.3365 17.7316 89.2534C19.4213 89.1079 20.2766 88.8378 20.7773 88.526C21.7369 87.9234 22.1124 87.2584 22.2375 86.5934C22.4878 85.3882 22.1958 84.0997 22.4878 82.8945C22.9468 80.8579 22.613 78.7175 23.1971 76.7018C23.4266 75.9537 23.5309 75.1848 23.5935 74.3951C23.6978 73.6055 23.7603 72.8158 23.9064 72.0469C24.1358 71.1949 24.1984 70.2598 24.6991 69.4909C25.2415 68.5973 25.3249 67.5167 25.6378 66.4984L26.3471 64.5658C26.6183 63.9424 26.8686 63.2774 27.1606 62.654C27.3901 62.176 27.557 61.6565 27.8699 61.2409C27.8699 61.2617 27.9116 61.2825 27.9325 61.3033C28.8504 62.0098 28.9547 63.0281 29.5179 63.8385C30.7278 65.5425 31.2702 67.5167 32.2507 69.2623C32.4175 69.574 32.7304 69.8234 32.7513 70.1974C32.793 70.7377 33.0434 71.0494 33.4397 71.3819C33.6066 71.5066 33.6275 71.6936 33.7109 71.8807C33.9821 72.6495 34.1073 73.46 34.4827 74.1873C34.9208 75.0393 34.9 76.0784 35.2963 76.9512C35.5884 77.6369 35.651 78.4058 35.797 79.1539C35.9639 80.0683 36.4228 80.8787 36.7148 81.7515C37.0069 82.5828 37.2572 83.414 37.5076 84.3491C37.2364 84.6608 38.0082 84.8686 38.1334 85.2011C38.2585 85.4921 38.8218 85.4713 39.7396 85.1388C41.3459 84.5154 42.076 83.7257 42.4307 82.9568C43.0774 81.5021 43.0774 80.1514 42.8062 78.9046C42.3055 76.6395 41.2208 74.6029 40.5324 72.421C40.2403 71.5066 39.8857 70.5923 39.4685 69.6987C39.0512 68.8259 38.5297 67.8492 38.0499 67.0803C37.0903 65.4802 36.1307 63.9424 35.4632 62.3007C34.9417 61.0539 34.3367 59.8902 33.7526 58.7472C33.1685 57.5627 32.7305 56.5652 32.3758 55.2145C31.9795 53.7598 31.5623 52.326 31.6666 50.8297C31.7083 50.0609 31.6666 49.292 31.6248 48.4815C31.9586 48.6062 32.3132 48.7517 32.647 48.5854C33.8778 47.9204 35.1294 48.0867 36.3185 47.6087C38.8009 46.6736 41.3251 46.0086 43.5154 44.5955C43.9118 44.3461 44.2038 43.9305 44.6628 43.8058C45.2886 43.598 45.7893 43.1409 46.1647 42.5174C46.3108 42.2681 46.5611 42.1226 46.7697 41.9148C47.6667 41.1251 48.6472 40.1484 49.1478 39.0055C49.7111 37.6963 50.4621 36.5326 50.7124 35.265C50.9001 34.2883 51.2339 33.3739 51.4634 32.4596C51.7346 31.3374 51.6928 30.236 51.7763 29.1554C51.8597 28.1164 51.9432 27.0773 52.0475 25.8928C52.423 25.6019 51.7554 25.1032 51.7346 24.646C51.7346 24.2304 51.1505 24.1265 50.1909 24.2719H50.17ZM30.853 23.5238C30.853 23.5238 30.6027 23.4407 30.3523 23.3784C30.5609 23.4407 30.7278 23.503 30.853 23.5238ZM28.3706 20.4483V20.4898C28.3914 20.4483 28.4123 20.4275 28.3914 20.4483H28.3706Z" fill="var(--fill-0, white)"/>
<g id="Group_3">
<path id="Vector_2" d="M63.3331 30.0282C64.2093 31.0465 64.8977 32.0855 65.3566 33.2077C65.5652 33.6856 65.899 34.0804 66.0241 34.6C66.1284 35.0987 66.6917 35.3273 66.6291 35.9507C66.6291 36.1585 66.65 36.3456 66.7334 36.491C66.8377 36.7404 66.8168 37.1144 67.1089 37.2391C67.1506 37.2391 67.1923 37.2807 67.1923 37.3222C67.2549 37.6547 67.3801 38.0288 67.8599 37.9457C68.0685 37.9041 68.2145 37.9457 68.7569 37.3638C69.0907 36.9898 69.2993 36.6988 69.3827 36.491C69.487 36.2416 69.5705 36.0338 69.5913 35.9299C69.6122 35.7429 69.5705 35.6598 69.487 35.5974C69.4036 35.5143 69.2993 35.452 69.2575 35.3481C69.1532 35.1818 69.1324 34.9325 68.9446 34.787C68.8612 34.7247 68.8612 34.6208 68.9029 34.4961C68.9446 34.2675 69.0072 34.0389 68.9029 33.9142C68.9029 33.9142 68.8403 33.9142 68.8821 33.8519C69.195 33.4362 68.8612 33.3739 68.8821 33.1245C68.8821 32.9167 69.0281 32.7089 68.7778 32.6258C68.7569 32.6258 68.7778 32.5842 68.7778 32.5635C69.0072 32.3349 68.8195 32.2725 68.8403 32.1478C68.8403 31.8569 68.5691 31.6699 68.5066 31.3997C68.4023 31.0672 68.444 30.6932 68.1102 30.423C68.0268 30.3399 68.0059 30.2568 67.9433 30.1529C67.8599 29.9866 67.9433 29.7788 67.7973 29.6334C67.3592 29.0931 67.1923 28.4696 66.4831 27.9709C66.2328 27.8047 66.3162 27.5345 66.2745 27.3059C66.2119 26.9942 66.0659 26.7033 65.8155 26.4123C65.3566 25.872 65.1897 25.2278 64.6891 24.6875C64.6056 24.5629 64.5222 24.4382 64.4387 24.3135C64.4387 24.2927 64.4179 24.2511 64.2927 24.2719C64.0632 24.3135 63.9381 24.2719 63.5 24.4174C63.1245 24.5421 62.9368 24.6668 62.7699 24.7707C62.6238 24.8538 62.4152 24.9577 62.3318 25.02C61.7894 25.4564 61.4139 25.8305 61.4765 26.1214C61.4974 26.2461 61.4556 26.3916 61.3931 26.5578C61.3096 26.828 61.3096 27.0566 61.4348 27.2644C61.998 28.1787 62.4987 29.1554 63.2705 30.0698L63.3331 30.0282Z" fill="var(--fill-0, white)"/>
<path id="Vector_3" d="M71.5314 24.8122C71.3645 25.8513 71.6565 26.9111 71.6983 27.9709C71.6983 28.5735 71.8234 29.1762 71.6565 29.7788C71.4688 30.4646 71.7191 31.1919 71.7817 31.8985C71.8651 32.8336 71.9694 33.748 72.1155 34.6623C72.178 35.0571 72.3032 35.4728 72.2824 35.8676C72.2615 36.2832 72.3241 36.6988 72.2198 37.0937C72.0946 37.5508 72.5118 38.0288 72.032 38.5068C71.9486 38.5899 72.1781 38.673 72.7413 38.673C73.2211 38.673 73.4714 38.5899 73.6174 38.5275C73.9929 38.3613 74.4727 38.195 74.9525 38.0288C75.2028 37.9457 75.3697 37.8625 75.4532 37.7794C75.8913 37.343 75.9538 36.9274 75.9747 36.491C75.9956 35.8884 75.8704 35.265 75.7035 34.6415C75.6409 34.3714 76.0373 34.122 75.8704 33.8519C75.8287 33.7687 75.7661 33.6856 75.787 33.5817C75.8287 33.2284 76.0164 32.8752 75.9538 32.5219C75.8287 31.8777 76.2459 31.2543 76.0999 30.6101C76.0999 30.5893 76.0999 30.5685 76.0999 30.5477C76.6005 30.1113 76.3502 29.6334 76.3085 29.1554C76.2459 28.4696 76.225 27.8047 76.0581 27.1189C76.0164 26.9734 76.4336 26.8487 76.2667 26.7033C75.8495 26.3084 76.0999 25.9967 75.9747 25.6227C75.7244 24.8538 76.079 24.1472 76.0581 23.3991C76.0581 23.2537 75.9538 23.1082 76.0581 22.9835C76.2042 22.8173 76.1624 22.6302 75.9956 22.4224C75.933 22.3393 75.9747 22.277 75.9956 22.1939C76.0581 21.8821 76.2042 21.5704 76.1624 21.2379C76.0999 20.8639 76.3919 20.5106 76.3502 20.1366C76.3085 19.8456 76.4545 19.5547 76.5379 19.2638C76.6214 18.9105 76.4962 18.5364 76.4545 18.1832C76.4128 17.8299 76.371 17.4766 76.3293 17.0818C76.5797 16.9779 76.0373 16.8116 75.9747 16.6662C75.9121 16.5207 75.4949 16.4999 74.7856 16.5415C73.534 16.6246 72.9082 16.8116 72.5327 17.0194C71.8443 17.4143 71.5731 17.8299 71.5105 18.2663C71.3853 19.056 71.6565 19.8872 71.5105 20.6769C71.281 22.0068 71.74 23.4199 71.5105 24.7914L71.5314 24.8122Z" fill="var(--fill-0, white)"/>
<path id="Vector_4" d="M78.5406 36.3248C78.9578 36.5949 79.2916 36.7612 79.521 36.782C79.7922 36.8235 80.0217 36.8235 80.1468 36.782C80.5849 36.6365 80.5432 36.2417 80.7518 35.9715C80.9187 35.7221 81.169 35.5143 81.2316 35.2234C81.2525 35.0987 81.3776 35.0156 81.5236 34.9532C81.774 34.8286 82.0034 34.6831 82.0869 34.4545C82.0869 34.4337 82.0869 34.3714 82.1286 34.3714C82.6918 34.3298 82.5667 33.9558 82.7961 33.748C82.9839 33.6025 83.2759 33.4986 83.1925 33.2077C83.1925 33.1869 83.2134 33.1661 83.2551 33.1661C83.5889 33.1661 83.5263 32.9583 83.6514 32.8544C83.9226 32.605 83.8809 32.231 84.0478 31.9193C84.2564 31.5452 84.5693 31.2335 84.5484 30.7555C84.5484 30.6308 84.611 30.5269 84.6528 30.4023C84.7153 30.1945 84.9239 30.0698 84.9448 29.8412C85.0282 29.0723 85.362 28.4073 85.1951 27.5137C85.1325 27.202 85.3829 27.0358 85.508 26.8072C85.6958 26.5163 85.7792 26.163 85.8001 25.7889C85.8418 25.0408 86.1547 24.4382 86.2173 23.6901C86.259 23.5446 86.3007 23.4199 86.3216 23.2745C86.3216 23.2537 86.3425 23.2121 86.259 23.129C86.0921 22.9835 86.0296 22.8588 85.6332 22.6095C85.2994 22.4017 85.07 22.3393 84.9031 22.277C84.7362 22.2146 84.5276 22.1315 84.4233 22.1315C83.6723 22.09 83.1091 22.1731 82.9213 22.4848C82.8379 22.6303 82.671 22.7342 82.525 22.8173C82.2538 22.9835 82.0869 23.2121 82.0243 23.4823C81.7531 24.6668 81.4402 25.8097 81.3776 27.0773C81.315 28.4904 81.0438 29.7996 80.5223 30.9633C80.2929 31.4621 80.2094 32.0024 79.8756 32.4388C79.5627 32.8544 79.667 33.457 79.0829 33.748C78.8952 33.8519 78.77 33.9558 78.6657 34.1012C78.5197 34.309 78.1859 34.4337 78.1651 34.7247C78.1651 34.7662 78.1651 34.8078 78.1233 34.8286C77.8522 34.9948 77.5601 35.1611 77.7896 35.5559C77.8939 35.7221 77.8939 35.8676 78.5614 36.304L78.5406 36.3248Z" fill="var(--fill-0, white)"/>
<path id="Vector_5" d="M61.0384 43.4734C61.5391 43.8266 61.6225 44.6163 62.2275 44.8657C62.4361 44.928 62.6238 45.0111 62.7699 45.1358C63.3748 45.6761 63.9172 46.3411 64.6891 46.6944C66.0241 47.2762 67.1298 48.3361 68.6109 48.5854C68.6526 48.5854 68.7152 48.5854 68.736 48.6478C69.4036 49.4167 70.3214 49.4998 71.2185 49.5413C70.9264 49.8115 71.2185 50.0816 71.3436 50.3518C71.5314 50.809 71.6357 51.2454 71.9694 51.6818C72.032 51.7857 71.5105 51.8896 71.7608 51.9935C72.3867 52.2013 72.0946 52.4506 72.3032 52.6792C72.5535 52.9494 72.5327 53.2403 72.5118 53.5312C72.3867 53.5312 72.2615 53.552 72.1363 53.552L69.6122 53.7183C68.7152 53.7598 68.1519 53.7806 66.5874 53.6975C65.8155 53.6559 64.9602 53.5936 64.2927 53.7806C63.6043 53.9469 63.0828 54.1131 62.5613 54.6118C62.0606 55.1521 61.9354 55.7756 61.8729 56.4613V57.5419C61.8729 57.8952 61.8729 58.2485 61.9146 58.6433C62.1649 61.3448 62.4152 64.0671 62.6447 66.7686C62.749 67.8908 62.9159 68.9921 62.895 70.1143C62.895 71.2572 62.9785 72.421 62.8533 73.5639C62.7073 74.8731 63.2705 76.1615 62.6656 77.4915C62.5613 77.7408 62.8742 77.9694 63.6252 77.9902C64.2718 78.011 64.6056 77.7824 64.7725 77.6161C65.2523 77.1174 65.8781 76.6602 66.5248 76.2031C66.8586 75.9745 67.0672 75.7459 67.1715 75.4965C67.7347 74.2497 67.8182 73.0028 67.8182 71.756C67.839 69.9688 67.6513 68.1817 67.4009 66.3738C67.2966 65.5841 67.8182 64.8152 67.5678 64.0255C67.4844 63.7762 67.4218 63.5268 67.4218 63.2774C67.4635 62.2176 67.6513 61.1578 67.5261 60.098C67.3384 59.7031 67.693 59.8486 67.6721 59.6824C67.6721 59.6824 67.6721 59.6824 67.693 59.6824C67.9016 59.9941 67.8599 60.0356 67.8807 60.0148C68.4648 59.9733 69.195 59.8694 69.8417 59.807C70.4883 59.7447 71.135 59.7031 71.7817 59.6616C71.7817 59.7031 71.8026 59.7447 71.8234 59.7655C71.9069 60.0148 71.3853 60.2227 71.5939 60.4928C71.6565 60.5759 71.7191 60.659 71.6983 60.7422C71.6357 61.0747 71.3853 61.3864 71.4688 61.7189C71.6357 62.3215 71.1142 62.8618 71.3228 63.4645C71.3228 63.4645 71.3228 63.506 71.3228 63.5268C70.6761 63.9008 71.0307 64.358 71.1141 64.7944C71.2393 65.4178 71.281 66.0205 71.5522 66.6647C71.6148 66.8102 71.0724 66.8933 71.3019 67.0387C71.886 67.392 71.5731 67.6829 71.74 68.0154C72.0946 68.722 71.6774 69.3454 71.74 70.0312C71.74 70.1559 71.9069 70.2805 71.74 70.3844C71.5314 70.5299 71.6148 70.6962 71.8443 70.8832C71.9277 70.9663 71.886 71.0286 71.886 71.091C71.8234 71.3611 71.6357 71.6521 71.7191 71.943C71.8026 72.2755 71.4479 72.5872 71.5105 72.9197C71.5522 73.1898 71.3853 73.4392 71.3019 73.6886C71.1976 74.0003 71.3853 74.3328 71.4271 74.6653C71.4896 74.977 71.5314 75.2887 71.5939 75.642C71.2602 75.7043 71.9903 75.8913 72.0529 76.0368C72.1363 76.1615 72.6996 76.2238 73.6383 76.2238C75.3072 76.2238 76.1416 76.0992 76.6422 75.9329C77.5601 75.6004 77.9147 75.2264 77.9982 74.8315C78.1442 74.1042 77.7687 73.3353 77.9147 72.608C78.1651 71.3819 77.4767 70.0935 77.6853 68.8674C77.8313 67.9531 77.3932 66.9764 77.2889 66.0205C77.2263 65.4802 77.0803 64.9399 77.2681 64.4204C77.4975 63.8177 77.1429 63.1735 77.0386 62.5293C76.8926 61.6981 76.7883 60.8876 76.6005 60.0564C76.5588 59.8902 76.5171 59.7031 76.4753 59.5369C76.6005 59.5784 76.7257 59.5784 76.8508 59.4953C77.8313 58.8927 78.8118 59.1836 79.8131 58.9966C80.2094 58.7888 80.5641 58.7888 80.8978 58.8096C80.9813 58.8096 81.0647 58.8096 81.1273 58.8719C81.169 58.955 81.1273 59.0589 81.1273 59.1421C81.1273 59.3083 81.1273 59.4745 81.1273 59.6408C81.1482 59.7447 81.315 59.8486 81.169 59.9941C81.0856 59.9941 81.0439 60.3266 81.0856 60.5759C81.1064 60.8253 81.2107 61.0954 81.3359 61.3448C81.4402 61.5526 81.3985 61.7604 81.3985 61.989C81.3776 62.8826 81.2316 63.7969 81.3568 64.6905C81.5028 65.7296 81.1899 66.7894 81.315 67.8284C81.3985 68.6389 81.2733 69.4493 81.2107 70.2598C81.1481 71.2572 81.3776 72.2339 81.4611 73.2314C81.5445 74.1873 81.6279 75.1432 81.7114 76.2238C81.3985 76.5148 82.1077 76.9096 82.1912 77.3252C82.2746 77.6993 82.8379 77.7408 83.7766 77.5122C85.4455 77.0966 86.2799 76.5148 86.7597 75.8498C87.6567 74.5822 87.9696 73.2938 87.9905 72.0053C88.053 69.6571 87.5315 67.3505 87.5733 65.0646C87.5733 64.0879 87.5524 63.132 87.4689 62.176L87.3438 60.7422L87.2812 59.9941L87.2186 58.6433L87.1352 57.3133C87.1143 56.8769 87.1352 56.399 86.9474 56.1081L86.5511 55.1106L86.3633 54.6118C86.3007 54.4664 86.1964 54.3417 86.0713 54.1962C85.9461 54.0715 85.8001 53.9053 85.6541 53.8222L85.2577 53.5936L84.7988 53.3858L84.2773 53.2195C83.5471 52.9909 82.6084 53.0741 81.7531 53.0325H79.8131L78.7075 53.0533C78.5614 53.0533 78.3945 53.0741 78.2485 53.0948C78.2485 52.9909 78.2485 52.887 78.2485 52.7831C78.3111 52.0974 77.7687 51.4324 77.5601 50.7674C77.4558 50.3726 77.2263 49.9985 77.3724 49.6037C77.3932 49.5206 77.3724 49.4582 77.3724 49.3751C78.019 48.8764 78.7283 49.001 79.375 48.6685C80.8352 47.8997 82.4832 47.6919 83.9018 46.7359C84.1521 46.5697 84.319 46.2788 84.6319 46.2164C85.0908 46.1333 85.3829 45.8216 85.5289 45.3644C85.5915 45.1774 85.7584 45.115 85.8835 44.9904C86.4468 44.5332 87.0517 44.1176 87.4272 43.4941C87.8444 42.7876 88.5537 42.2889 88.8875 41.5407C89.1378 40.9589 89.5342 40.5017 89.8471 39.9614C90.2226 39.3172 90.2851 38.5691 90.452 37.8833C90.5981 37.2183 90.7441 36.5741 90.8692 35.8676C91.2447 35.7637 90.6189 35.3065 90.6189 35.0364C90.6189 34.7662 90.0765 34.6 89.1378 34.4753C87.469 34.2467 86.5719 34.3714 85.9878 34.6208C84.9031 35.0987 84.3607 35.6806 84.0687 36.3248C83.5263 37.4677 83.422 38.6938 82.7127 39.4627C82.1495 40.1069 81.7114 40.7095 81.0647 41.3329C80.418 41.9356 79.6045 42.4967 78.6449 42.7045C77.2263 43.0162 75.7452 43.6604 74.0972 43.6812C73.1794 43.6812 72.1989 43.7019 71.3436 43.2863C70.3632 42.8084 69.2158 42.746 68.1728 42.3304C66.8168 41.7901 65.5235 41.0212 64.3136 40.0861C63.792 39.6913 63.2288 39.2549 62.8533 38.6938C62.4778 38.1119 62.0189 37.5716 61.8311 36.9066C61.6225 36.1793 60.8298 35.6182 61.2262 34.6831C61.3096 34.5168 60.955 34.4753 60.2249 34.6415C59.599 34.787 59.307 34.9948 59.161 35.1611C58.7646 35.6182 58.264 36.117 57.7633 36.6573C57.513 36.9274 57.3669 37.1768 57.3252 37.4054C57.1375 38.5483 57.5338 39.525 58.0345 40.4186C58.7646 41.6862 59.8285 42.7045 60.955 43.5565L61.0384 43.4734Z" fill="var(--fill-0, white)"/>
<path id="Vector_6" d="M92.1835 82.8321C90.6398 82.0217 89.8471 81.5021 89.0335 81.3775C87.5524 81.0865 86.1547 81.1489 84.6945 81.4398C82.0869 81.9178 79.3541 82.7074 76.5171 82.8113C74.1598 82.8945 71.7817 83.0815 69.4453 83.1438C68.2771 83.1646 67.1089 83.1646 66.0033 83.0815C64.8977 82.9984 63.792 82.7906 63.1036 82.4996C62.9367 82.4373 62.9159 82.3957 62.8116 82.3749L62.3735 82.084C62.0815 81.8762 61.7477 81.71 61.4556 81.5229C61.2053 81.2943 60.9341 81.0865 60.6421 80.8995C60.35 80.6917 60.1831 80.4216 59.9119 80.193C58.9941 79.1955 58.264 77.9071 57.8885 76.3485C57.4712 74.5614 57.2418 72.5249 57.4712 70.4883C57.7633 68.1193 57.6381 65.6256 57.7424 63.132C57.9093 59.8694 58.0971 56.5652 58.1179 53.2611V51.0999C58.1179 50.2063 58.0136 49.5829 57.9928 48.8348C57.951 48.0243 57.9093 47.0061 57.7633 46.1333C57.6799 45.6969 57.5964 45.2813 57.4087 44.8864C57.2209 44.4708 56.8246 44.1591 56.4282 44.076C56.0319 43.9305 55.5729 43.8474 55.0723 43.8266L52.6941 43.7851C52.0475 43.7435 51.4216 43.6396 50.8167 43.3695C50.5246 43.224 50.2326 43.5149 50.0866 44.2422C49.9405 44.8657 50.1909 45.2397 50.3995 45.4267C50.9836 45.967 51.5468 46.632 52.0892 47.3178C52.3604 47.6711 52.6733 47.8997 52.9445 48.0243C53.0279 48.2114 53.0696 48.336 53.0696 48.44C53.0696 48.6685 53.0279 48.7309 53.0071 48.7724C53.0071 48.814 53.0071 48.7724 53.0279 48.8556L53.1739 50.3102L53.2157 50.6635C53.2157 50.809 53.2365 50.6635 53.2365 50.8505V51.7025L53.2782 53.4066C53.2991 54.3833 52.6941 55.2976 52.8193 56.2951C52.861 56.6068 52.9028 56.9393 52.861 57.251C52.6733 58.5602 52.3187 59.8486 52.2978 61.1993C52.2352 63.5684 51.5051 65.9166 51.5885 68.3895C51.5885 68.4726 51.5885 68.5557 51.5677 68.6389C51.213 69.5116 51.0879 70.4052 51.1087 71.3611C51.1087 71.8391 51.1505 72.2963 51.1922 72.7534C51.2548 73.2314 51.3173 73.7094 51.3591 74.1873C51.4008 74.8523 51.5259 75.5796 51.6511 76.2862C51.7137 76.6394 51.7763 76.9927 51.8597 77.346L52.1726 78.4266C52.2769 78.7799 52.3812 79.1331 52.5064 79.5072L52.9862 80.5878C53.1531 80.9411 53.2991 81.2943 53.5077 81.6268L54.1753 82.6243C54.5507 83.2062 54.5716 84.079 55.1974 84.453C55.9276 84.931 56.5742 85.3882 57.1792 85.9077C57.7633 86.448 58.41 86.8428 59.0984 87.1961C59.7242 87.5494 60.8298 88.0065 61.6017 88.2143C62.4152 88.4429 63.1662 88.6092 63.8963 88.7546C65.3775 89.0456 66.796 89.2534 68.2145 89.2742C68.736 89.2742 69.2575 89.1495 69.7373 89.2949C70.4257 89.5027 71.1142 89.4404 71.8026 89.191C72.0737 89.1079 72.3658 89.1287 72.637 89.1495C73.826 89.1703 75.0151 89.2949 76.2042 89.1495C77.581 88.9624 78.9786 89.1703 80.3763 88.9209C81.4611 88.7339 82.5458 88.7339 83.6514 88.6092C85.0074 88.4637 86.3008 87.9857 87.6358 87.5286C88.9292 87.0714 90.2017 86.635 91.7037 85.7414C92.2878 85.783 92.4755 84.8479 92.9762 84.2868C93.456 83.7465 93.0179 83.3724 92.1 82.936L92.1835 82.8321Z" fill="var(--fill-0, white)"/>
</g>
</g>
<path id="Vector_7" d="M53.4869 106.585C23.9898 106.585 0 82.6867 0 53.3027C0 23.9187 23.9898 0 53.4869 0C82.9839 0 106.974 23.8979 106.974 53.2819C106.974 82.6659 82.9839 106.564 53.4869 106.564V106.585ZM53.4869 4.07303C26.2428 4.07303 4.0887 26.163 4.0887 53.2819C4.0887 80.4008 26.2428 102.491 53.4869 102.491C80.7309 102.491 102.885 80.4216 102.885 53.2819C102.885 26.1422 80.7309 4.07303 53.4869 4.07303Z" fill="var(--fill-0, white)"/>
</g>
</svg>
